<svg width="100" height="100" viewBox="0 0 26 28" fill="none" xmlns="http://www.w3.org/2000/svg">
<path d="M10.4113 0.447004C9.40742 0.616486 7.84297 1.16404 6.85216 1.68552C5.69186 2.29826 3.98401 3.68019 3.16268 4.68404C2.27616 5.75308 1.24623 7.74774 0.789937 9.23397C0.464012 10.29 0.437937 10.6029 0.437937 12.428C0.437937 14.2532 0.464012 14.5661 0.789937 15.6091C1.11586 16.6781 1.97631 18.6206 2.30223 19.0117C2.49779 19.2464 2.35438 19.2986 1.62431 19.3116C1.27231 19.3116 0.789937 19.3246 0.542234 19.3246L0.0859375 19.3377V23.3661V27.3946L1.16801 27.4728C1.75468 27.5119 7.41275 27.538 13.7488 27.5249L25.2474 27.4989V23.4183V19.3377L24.6347 19.3246C24.2827 19.3246 23.7612 19.3116 23.4613 19.3116C23.1485 19.3116 22.9008 19.2855 22.9008 19.2594C22.9008 19.2203 23.0963 18.8032 23.344 18.3208C25.3256 14.3706 25.3517 10.5377 23.4092 6.80908C21.8317 3.81056 19.0288 1.54212 15.7956 0.681671C14.6092 0.355745 11.6107 0.225375 10.4113 0.447004ZM13.1751 1.503C13.0969 1.77678 13.0708 1.94626 13.0056 2.48078C13.0056 2.57204 12.8753 2.65026 12.7319 2.65026C12.5102 2.65026 12.4711 2.559 12.4711 2.0636C12.4711 1.73767 12.419 1.47693 12.3668 1.47693C12.3016 1.47693 12.2625 1.72463 12.2625 2.02448C12.2756 2.50685 12.2365 2.58508 11.9888 2.62419C11.7019 2.6633 11.6889 2.62419 11.6889 1.94626V1.21619H12.4842C13.2403 1.21619 13.2664 1.22923 13.1751 1.503ZM11.4803 1.92019C11.4412 2.54597 11.1935 2.80671 10.5938 2.80671C10.333 2.80671 10.0853 2.85885 10.0462 2.92404C9.91586 3.13263 9.35527 3.04137 9.21186 2.79367C8.75557 1.93323 9.51171 1.34656 11.037 1.39871C11.4933 1.41174 11.5064 1.42478 11.4803 1.92019ZM15.1046 1.51604C15.613 1.59426 15.8608 1.84197 15.8608 2.27219C15.8608 2.87189 15.0655 3.263 14.6613 2.87189C14.5701 2.78063 14.2833 2.70241 14.0356 2.71545C13.6705 2.71545 13.5662 2.65026 13.4619 2.36345C13.3707 2.11574 13.3837 1.90715 13.488 1.65945C13.6575 1.30745 13.8139 1.29441 15.1046 1.51604ZM17.0993 2.15485C17.6599 2.35041 17.7511 2.46774 17.5034 2.72848C17.3861 2.84582 17.2427 3.10656 17.2036 3.31515C17.1253 3.7193 17.0732 3.75841 16.7864 3.57589C16.6299 3.4716 16.6169 3.3673 16.7473 2.95011C16.8255 2.68937 16.8516 2.4156 16.7864 2.35041C16.7342 2.29826 16.6169 2.49382 16.5256 2.78063C16.3822 3.27604 16.0954 3.45856 15.9259 3.15871C15.8738 3.08048 15.939 2.75456 16.0563 2.44167C16.2258 1.98537 16.3301 1.86804 16.4996 1.93323C16.6169 1.98537 16.8907 2.08967 17.0993 2.15485ZM8.22105 2.59811C8.45571 3.19782 8.11675 3.8236 7.5692 3.8236C7.39971 3.8236 7.20416 3.94093 7.12594 4.08434C7.03468 4.25382 6.85216 4.34508 6.61749 4.34508C6.33068 4.34508 6.21334 4.25382 6.08297 3.94093C5.93957 3.58893 5.93957 3.51071 6.17423 3.19782C6.31764 3.00226 6.61749 2.79367 6.85216 2.72848C7.07379 2.6633 7.25631 2.559 7.25631 2.50685C7.25631 2.29826 8.14283 2.37648 8.22105 2.59811ZM13.8139 3.31515C16.7733 3.75841 19.5893 5.90952 20.867 8.67337C21.6622 10.4203 21.8708 13.132 21.3493 15.0876C20.893 16.7824 19.3286 19.3377 18.7289 19.3377C18.3639 19.3377 18.3899 19.2725 18.9896 18.5815C20.541 16.8346 21.4145 13.8621 21.0756 11.5676C20.7236 9.28611 19.9935 7.6956 18.6246 6.27456C16.9298 4.50152 15.1828 3.69323 12.8622 3.58893C10.6459 3.49767 9.05542 4.03219 7.25631 5.49234C5.32683 7.03071 4.21868 9.23397 3.9449 12.063C3.73631 14.1229 4.60979 16.7563 6.09601 18.5685C6.59142 19.1812 6.61749 19.3377 6.21334 19.3377C5.67883 19.3377 4.14046 16.7303 3.65809 15.0354C3.33216 13.8882 3.33216 11.3981 3.64505 10.2117C4.10134 8.56908 4.85749 7.25234 6.08297 6.02685C8.29927 3.78448 10.9067 2.87189 13.8139 3.31515ZM19.2765 3.38034C19.472 3.56285 19.5372 3.57589 19.7197 3.41945C19.9022 3.27604 19.9674 3.28908 20.176 3.54982C20.4759 3.91485 20.3846 4.13648 20.0065 3.94093C19.8501 3.86271 20.0326 4.08434 20.3976 4.44937C20.7757 4.80137 21.0756 5.15337 21.0756 5.21856C21.0756 5.44019 20.541 6.03989 20.3585 6.03989C20.2542 6.03989 20.0065 5.89648 19.811 5.71397L19.4459 5.40108L19.7328 4.86656C20.0848 4.21471 19.9413 4.1756 19.5372 4.81441C19.2504 5.24463 19.2113 5.27071 19.0288 5.08819C18.8462 4.90567 18.8462 4.85352 19.107 4.5276C19.4068 4.14952 19.459 3.75841 19.2373 3.615C19.1591 3.57589 19.0288 3.60197 18.9505 3.68019C18.8462 3.78448 18.8462 3.8236 18.9636 3.8236C19.2113 3.8236 19.1461 4.44937 18.8723 4.59278C18.6898 4.69708 18.5725 4.65797 18.3248 4.39723C18.0249 4.0713 18.0249 4.0713 18.2596 3.62804C18.5333 3.1196 18.8853 3.04137 19.2765 3.38034ZM5.74401 4.03219C6.12209 4.41026 6.00475 4.89263 5.36594 5.49234C5.04001 5.79219 4.77927 6.09204 4.77927 6.15723C4.77927 6.20937 4.66194 6.36582 4.53157 6.48315C4.06223 6.90034 3.3452 6.37885 3.54075 5.76611C3.64505 5.44019 4.72712 4.20167 5.09216 3.99308C5.4572 3.78448 5.50934 3.78448 5.74401 4.03219ZM12.9405 4.46241C12.8231 4.59278 12.4581 4.84048 12.1452 5.00997C11.728 5.2316 11.5585 5.41411 11.5325 5.64878C11.4933 5.92256 11.4282 5.97471 11.037 5.98774C10.7893 6.00078 10.3591 6.01382 10.0984 6.02685C9.4726 6.03989 9.44653 6.30063 10.0593 6.30063C10.4895 6.30063 10.5156 6.31367 10.3722 6.57441C10.2418 6.83515 10.2548 6.84819 10.5677 6.79604C10.7502 6.75693 10.9067 6.783 10.9067 6.83515C10.9067 6.90034 11.0501 6.95248 11.2326 6.95248C11.4151 6.95248 11.5585 7.00463 11.5585 7.08285C11.5585 7.14804 11.715 7.21323 11.8975 7.21323C12.08 7.21323 12.1973 7.26537 12.1452 7.3436C12.1061 7.40878 12.1582 7.47397 12.2886 7.47397C12.445 7.47397 12.4842 7.39574 12.432 7.17411C12.3668 6.93945 12.3799 6.91337 12.5102 7.08285C12.6015 7.18715 12.784 7.29145 12.9274 7.31752C13.8791 7.44789 13.9052 7.44789 13.9182 7.16108C13.9182 6.8873 13.9182 6.8873 14.0356 7.17411C14.1138 7.36967 14.2311 7.44789 14.3615 7.39574C14.6483 7.27841 14.6092 6.93945 14.2963 6.86123C13.9965 6.783 13.9573 6.61352 14.205 6.52226C14.2963 6.49619 14.2181 6.39189 14.0095 6.30063C13.7748 6.1833 13.6705 6.05293 13.6966 5.85737C13.7618 5.41411 13.9182 5.1273 14.1008 5.1273C14.192 5.1273 14.2572 5.04908 14.2442 4.95782C14.192 4.61885 14.0095 4.47545 13.6053 4.46241C13.3707 4.44937 13.2925 4.4233 13.4228 4.38419C13.7618 4.29293 14.8308 4.55367 15.6261 4.91871C16.0042 5.10123 16.2388 5.24463 16.1606 5.25767C16.0693 5.25767 15.9911 5.33589 15.9911 5.41411C15.9911 5.50537 15.8347 5.727 15.6652 5.89648C15.2871 6.24848 15.261 6.45708 15.5348 6.69174C15.6391 6.783 15.7043 6.90034 15.6652 6.95248C15.6 7.05678 15.9781 7.26537 16.1606 7.2393C16.2128 7.22626 16.2519 7.35663 16.2519 7.52611C16.2519 7.70863 16.3562 7.93026 16.4865 8.02152C16.6169 8.11278 16.7994 8.30834 16.8776 8.45174C17.1905 9.01234 17.008 8.38656 16.643 7.65648C16.4083 7.18715 16.1736 6.8873 16.0433 6.8873C15.9259 6.8873 15.7695 6.75693 15.7173 6.58745C15.613 6.31367 15.6261 6.30063 15.8999 6.44404C16.0563 6.5353 16.2779 6.71782 16.4083 6.84819C16.5648 7.03071 16.643 7.05678 16.6951 6.92641C16.7342 6.83515 16.7342 6.8873 16.6951 7.05678C16.6169 7.35663 17.1775 8.42567 17.2688 8.15189C17.2948 8.07367 17.4773 8.16493 17.6859 8.38656C17.9858 8.69945 18.077 8.73856 18.2074 8.59515C18.429 8.30834 18.8723 8.51693 19.0288 8.96019L19.1722 9.36434L19.2634 8.9993C19.3156 8.79071 19.3416 8.52997 19.3025 8.41263C19.2765 8.28226 19.4459 8.59515 19.6936 9.1036C19.9413 9.599 20.2151 10.3682 20.3194 10.7984C20.6714 12.3889 20.4237 14.8138 19.7719 16.0784L19.5372 16.5347L19.4459 16.0393C19.3286 15.4657 19.1982 15.4396 18.3508 15.8829L17.712 16.1957L17.725 15.6873C17.7381 15.4005 17.7902 15.1658 17.8424 15.1658C17.8945 15.1658 17.9467 15.0224 17.9467 14.8399C17.9467 14.6574 18.0119 14.514 18.1031 14.514C18.2205 14.514 18.2205 14.4749 18.1031 14.3575C18.0119 14.2663 17.9467 14.0968 17.9467 13.9664C17.9467 13.81 17.8815 13.7709 17.7381 13.823C17.6208 13.8621 17.4773 13.823 17.4122 13.7187C17.3079 13.5623 17.2688 13.5753 17.1514 13.7578C17.0862 13.8882 16.9428 13.9925 16.8646 13.9925C16.7603 13.9925 16.6951 14.175 16.6951 14.4488C16.6951 14.8008 16.7473 14.892 16.8776 14.8399C17.008 14.7877 17.0341 14.8399 16.9819 14.9833C16.9298 15.1397 16.9689 15.1658 17.1645 15.1006C17.3991 15.0224 17.4252 15.0746 17.4252 15.5178C17.4252 15.7916 17.373 15.948 17.3209 15.8698C17.2036 15.6743 16.6299 15.596 16.4083 15.7394C16.1215 15.9089 16.1997 16.2088 15.5479 12.3629C15.1959 10.3682 15.1568 9.83367 15.2741 9.62508C15.4566 9.31219 15.4305 8.60819 15.2219 8.06063C15.0916 7.74774 15.0394 7.70863 14.9351 7.86508C14.8178 8.03456 14.7787 8.03456 14.6613 7.839C14.5179 7.64345 14.4919 7.64345 14.3354 7.839C14.179 8.0476 14.179 8.0476 14.1659 7.839C14.1659 7.72167 14.1008 7.57826 14.0095 7.52611C13.9052 7.46093 13.8922 7.50004 13.9443 7.65648C13.9965 7.78685 13.9834 7.85204 13.9052 7.79989C13.827 7.76078 13.7748 7.82597 13.7618 7.95634C13.7618 8.15189 13.7357 8.13885 13.6184 7.90419L13.475 7.60434L13.1751 7.96937C12.8753 8.30834 12.8622 8.30834 12.8622 8.03456C12.8622 7.66952 12.6797 7.55219 12.4711 7.79989C12.2495 8.07367 12.1191 8.0476 12.0409 7.70863C11.9757 7.47397 11.9366 7.46093 11.7671 7.60434C11.6498 7.6956 11.5585 7.86508 11.5455 7.98241C11.5455 8.11278 11.4933 8.07367 11.4151 7.87811C11.2587 7.487 11.0762 7.63041 10.8024 8.34745C10.5156 9.12967 10.4765 9.54685 10.659 9.78152C10.8154 9.96404 10.8154 9.99011 10.659 9.88582C10.5156 9.8076 10.4895 9.83367 10.5547 9.99011C10.6459 10.2248 9.64209 15.2832 9.45957 15.5048C9.39438 15.583 9.38134 15.6873 9.43349 15.7264C9.4726 15.7786 9.42046 15.8177 9.29009 15.8177C9.17275 15.8177 9.10757 15.7525 9.14668 15.6873C9.25097 15.5048 8.91201 15.5178 8.49483 15.7134C8.07764 15.8959 7.98638 15.8046 8.10371 15.2962C8.1689 14.9963 8.2732 14.879 8.56001 14.8269C9.09453 14.7095 9.19883 14.0968 8.7686 13.5883C8.46875 13.2233 8.45571 13.2233 8.23409 13.484C8.10371 13.6144 7.85601 13.7317 7.69957 13.7317C7.47794 13.7317 7.41275 13.7839 7.4649 13.9273C7.51705 14.0316 7.47794 14.1229 7.39971 14.1229C7.32149 14.1229 7.25631 14.175 7.25631 14.2532C7.25631 14.3184 7.34757 14.3836 7.45186 14.3836C7.55616 14.3836 7.64742 14.4357 7.64742 14.514C7.64742 14.5792 7.73868 14.6052 7.84297 14.5661C8.0646 14.4749 8.09068 14.5531 7.9212 14.879C7.68653 15.2962 7.60831 15.6221 7.63438 15.9741C7.66046 16.1827 7.60831 16.3392 7.53009 16.3392C7.45186 16.3392 7.38668 16.1957 7.38668 16.0132C7.38668 15.8307 7.34757 15.6873 7.29542 15.6873C7.23023 15.6873 7.06075 15.6482 6.90431 15.6091C6.66964 15.5439 6.60446 15.583 6.60446 15.7786C6.60446 15.922 6.5132 16.1436 6.4089 16.287C6.3046 16.4174 6.21334 16.7042 6.21334 16.8997C6.21334 17.4343 5.96564 17.2909 5.54846 16.5086C4.51853 14.6052 4.28386 12.0239 4.94875 10.0032C5.31379 8.88197 6.27853 7.29145 6.98253 6.6396C7.3606 6.27456 7.38668 6.27456 7.38668 6.52226C7.38668 6.67871 7.29542 6.90034 7.17809 7.00463C7.07379 7.12197 7.02164 7.21323 7.08683 7.22626C7.13897 7.2393 7.04771 7.29145 6.8652 7.3436C6.56534 7.43485 6.56534 7.44789 6.82609 7.46093C6.98253 7.47397 7.15201 7.53915 7.19112 7.60434C7.24327 7.68256 7.33453 7.70863 7.39971 7.66952C7.4649 7.63041 7.47794 7.6956 7.43883 7.82597C7.38668 7.99545 7.43883 7.98241 7.67349 7.73471C7.84297 7.55219 8.09068 7.39574 8.23409 7.36967C8.61216 7.31752 9.14668 6.67871 8.93809 6.54834C8.84683 6.49619 8.71646 6.48315 8.66431 6.50923C8.61216 6.54834 8.56001 6.50923 8.56001 6.431C8.56001 6.35278 8.66431 6.31367 8.79468 6.35278C8.95112 6.40493 9.13364 6.33974 9.27705 6.17026C9.51171 5.92256 9.49868 5.90952 9.06846 5.92256C7.85601 5.97471 7.75171 5.8313 8.6252 5.30982C9.79853 4.63189 11.1153 4.26685 12.5233 4.22774C13.149 4.21471 13.1621 4.22774 12.9405 4.46241ZM21.7926 6.11811C21.9751 6.31367 22.1185 6.52226 22.1185 6.58745C22.1185 6.6396 22.2619 6.66567 22.4314 6.61352C22.6661 6.56137 22.7965 6.62656 23.0181 6.90034C23.4222 7.40878 23.3831 7.78685 22.9529 7.72167C22.9008 7.72167 22.8225 7.76078 22.7834 7.82597C22.7443 7.89115 22.5096 8.09974 22.2619 8.28226L21.8056 8.62123L21.3885 8.02152C21.1538 7.6956 20.9843 7.38271 21.0104 7.3436C21.0495 7.29145 20.9582 7.14804 20.8148 7.01767C20.4759 6.71782 20.4889 6.45708 20.8409 6.079C21.2059 5.68789 21.4015 5.70093 21.7926 6.11811ZM13.5141 6.24848C13.5141 6.45708 13.3055 6.49619 13.1882 6.30063C13.0839 6.13115 13.2403 5.88345 13.3968 5.97471C13.4619 6.02685 13.5141 6.14419 13.5141 6.24848ZM7.77779 6.09204C7.77779 6.13115 7.72564 6.19634 7.64742 6.23545C7.58223 6.27456 7.51705 6.24848 7.51705 6.1833C7.51705 6.10508 7.58223 6.03989 7.64742 6.03989C7.72564 6.03989 7.77779 6.06597 7.77779 6.09204ZM3.63201 6.783C3.95794 7.08285 3.93186 7.68256 3.55379 8.06063C3.38431 8.23011 3.26697 8.3996 3.30609 8.42567C3.41038 8.543 2.95409 9.29915 2.7846 9.29915C2.69334 9.29915 2.48475 9.20789 2.31527 9.09056C2.05453 8.90804 2.01542 8.79071 2.0806 8.30834C2.10668 7.99545 2.09364 7.73471 2.02846 7.73471C1.79379 7.73471 1.92416 7.21323 2.1849 7.06982C2.44564 6.93945 2.45868 6.95248 2.39349 7.29145C2.34134 7.50004 2.34134 7.5913 2.38046 7.50004C2.48475 7.29145 2.83675 7.30448 3.17572 7.53915C3.54075 7.78685 3.68416 7.57826 3.3452 7.27841C3.18875 7.135 3.00623 7.09589 2.83675 7.14804C2.51083 7.25234 2.48475 7.12197 2.7846 6.79604C3.04534 6.50923 3.31912 6.49619 3.63201 6.783ZM11.2978 8.26923C11.2978 8.33441 11.2456 8.38656 11.1674 8.38656C11.1022 8.38656 11.037 8.2953 11.037 8.17797C11.037 8.07367 11.1022 8.02152 11.1674 8.06063C11.2456 8.09974 11.2978 8.191 11.2978 8.26923ZM11.9496 8.12582C11.9496 8.191 11.8975 8.25619 11.8193 8.25619C11.7541 8.25619 11.6889 8.191 11.6889 8.12582C11.6889 8.0476 11.7541 7.99545 11.8193 7.99545C11.8975 7.99545 11.9496 8.0476 11.9496 8.12582ZM13.4619 8.33441C13.3968 8.49085 13.4359 8.52997 13.5793 8.46478C13.6966 8.42567 13.7488 8.43871 13.7096 8.50389C13.6705 8.56908 13.6966 8.66034 13.7748 8.71248C13.84 8.7516 13.9052 8.92108 13.8922 9.07752V9.36434L13.7748 9.06448C13.7096 8.90804 13.6053 8.77767 13.5402 8.77767C13.475 8.77767 13.3576 8.90804 13.2794 9.06448L13.136 9.36434V9.07752C13.123 8.92108 13.1751 8.76463 13.2403 8.72552C13.3055 8.68641 13.3316 8.52997 13.2925 8.38656C13.2533 8.23011 13.2925 8.12582 13.3837 8.12582C13.475 8.12582 13.5141 8.21708 13.4619 8.33441ZM14.6744 8.34745C14.6613 8.47782 14.6874 8.68641 14.7396 8.80374C14.8048 8.93411 14.8178 9.1036 14.7787 9.19485C14.7265 9.29915 14.6744 9.26004 14.6222 9.06448C14.5701 8.90804 14.4788 8.77767 14.4136 8.77767C14.3354 8.77767 14.2311 8.90804 14.1659 9.06448L14.0486 9.36434V9.07752C14.0356 8.92108 14.0877 8.76463 14.1659 8.71248C14.2311 8.67337 14.2702 8.56908 14.2442 8.47782C14.2311 8.38656 14.2311 8.36048 14.2572 8.41263C14.3615 8.60819 14.544 8.51693 14.4788 8.32137C14.4267 8.21708 14.4658 8.12582 14.557 8.12582C14.6353 8.12582 14.6874 8.23011 14.6744 8.34745ZM23.1615 8.79071C23.1615 8.85589 22.9529 9.01234 22.6922 9.12967C22.2098 9.36434 22.1968 9.40345 22.4575 10.303C22.4966 10.4725 22.4836 10.6029 22.4184 10.6029C22.3532 10.6029 22.1707 10.2117 22.0273 9.74241L21.7405 8.895L22.288 8.66034C22.8225 8.42567 23.1615 8.47782 23.1615 8.79071ZM11.6107 8.80374C11.8453 9.12967 11.8845 9.69026 11.6889 9.69026C11.6237 9.69026 11.5585 9.61204 11.5585 9.52078C11.5585 9.42952 11.4673 9.23397 11.363 9.09056C11.1935 8.88197 11.1544 8.86893 11.037 9.03841C10.9588 9.14271 10.9328 9.40345 10.9588 9.62508L11.024 10.0162L10.8285 9.65115C10.4113 8.88197 11.1413 8.12582 11.6107 8.80374ZM12.7058 8.67337C13.0056 8.97323 12.8883 9.247 12.4711 9.247C12.1973 9.247 12.08 9.18182 12.08 9.03841C12.08 8.82982 12.3147 8.51693 12.4711 8.51693C12.5102 8.51693 12.6145 8.58211 12.7058 8.67337ZM15.2089 9.18182C15.2089 9.40345 15.1437 9.55989 15.0394 9.55989C14.9221 9.55989 14.883 9.41648 14.9221 9.1036C14.9873 8.56908 15.2089 8.62123 15.2089 9.18182ZM13.6445 9.16878C13.6445 9.23397 13.5923 9.29915 13.5141 9.29915C13.4489 9.29915 13.3837 9.23397 13.3837 9.16878C13.3837 9.09056 13.4489 9.03841 13.5141 9.03841C13.5923 9.03841 13.6445 9.09056 13.6445 9.16878ZM11.376 9.66419C11.2456 9.79456 10.9979 9.46863 11.1022 9.29915C11.1805 9.18182 11.2326 9.19485 11.3239 9.3513C11.4021 9.48167 11.4151 9.61204 11.376 9.66419ZM23.5005 9.50774C23.4483 9.83367 23.0572 10.0032 22.8225 9.8076C22.64 9.65115 22.64 9.62508 22.8486 9.46863C23.1745 9.23397 23.5396 9.26004 23.5005 9.50774ZM2.74549 9.63811C2.90194 9.78152 2.95409 10.0944 2.95409 10.7984C2.95409 11.3199 2.9932 11.8544 3.03231 11.9587C3.09749 12.1152 3.05838 12.1543 2.90194 12.0891C2.7846 12.05 2.69334 11.9066 2.69334 11.7892C2.69334 11.6197 2.66727 11.6197 2.57601 11.7632C2.48475 11.8935 2.30223 11.9196 1.85897 11.8544L1.24623 11.7632L1.33749 11.0852C1.38964 10.7072 1.44179 10.316 1.46786 10.2117C1.4809 10.1074 1.50697 9.93797 1.50697 9.84671C1.53305 9.52078 1.78075 9.7033 1.79379 10.0423L1.80683 10.4073L1.91112 10.0292C2.09364 9.44256 2.40653 9.29915 2.74549 9.63811ZM12.9144 10.0162C12.9535 10.1205 12.9144 10.2117 12.8231 10.2248C12.7319 10.2248 12.5624 10.2509 12.445 10.2769C12.3147 10.303 12.1843 10.2639 12.1322 10.1987C12.093 10.1335 12.2234 10.0814 12.432 10.0683C12.7579 10.0683 12.771 10.0553 12.5363 9.951C12.2886 9.84671 12.2886 9.83367 12.5493 9.83367C12.7058 9.82063 12.8622 9.91189 12.9144 10.0162ZM13.8009 10.0553C13.9182 10.1726 13.8661 10.2117 13.5402 10.2117C13.2403 10.2117 13.149 10.1596 13.2012 10.0292C13.2794 9.82063 13.5793 9.83367 13.8009 10.0553ZM14.6744 10.1726C14.7005 10.1987 14.6092 10.2117 14.4528 10.2117C14.2702 10.2117 14.1659 10.1335 14.1659 10.0032C14.1659 9.82063 14.205 9.8076 14.4006 9.96404C14.5179 10.0553 14.6483 10.1596 14.6744 10.1726ZM14.8569 9.91189C14.7656 9.93797 14.6092 9.93797 14.531 9.91189C14.4397 9.87278 14.5049 9.84671 14.6874 9.84671C14.8699 9.84671 14.9351 9.87278 14.8569 9.91189ZM11.6237 10.1987C11.5455 10.2639 11.376 10.3421 11.2326 10.3682C11.0892 10.3943 10.9588 10.5246 10.9328 10.668C10.8936 10.8766 10.9197 10.9027 11.0501 10.7593C11.3499 10.4725 11.5585 10.5768 11.5455 11.02C11.5455 11.359 11.5194 11.3981 11.4412 11.2026C11.3499 10.9679 11.3369 10.9679 11.2587 11.1634C11.1544 11.4503 10.9067 11.4503 10.8936 11.1504C10.8806 10.9027 10.2809 13.7839 10.2679 14.1489C10.2548 14.3314 10.3591 14.3836 10.7502 14.3836L11.2326 14.3966L10.8154 14.6183C10.4373 14.8138 10.4113 14.866 10.6068 14.9833C10.8024 15.1137 10.7893 15.1267 10.4895 15.1919C9.85068 15.3092 9.81157 15.1789 10.0462 13.8491C10.4504 11.5285 10.8024 10.2248 11.024 10.1726C11.4151 10.0553 11.741 10.0814 11.6237 10.1987ZM13.9443 10.6289C14.0486 11.02 13.9573 11.1243 13.501 11.1243C13.123 11.1243 13.0448 10.9679 13.2012 10.5507C13.3185 10.2378 13.8661 10.29 13.9443 10.6289ZM14.8178 10.4594C14.8178 10.5246 14.7265 10.6029 14.6222 10.655C14.5179 10.6941 14.4267 10.7854 14.4267 10.8506C14.4267 10.9288 14.531 10.9418 14.6483 10.9027C14.8048 10.8375 14.8439 10.8766 14.7787 11.0331C14.7396 11.1504 14.7526 11.2808 14.8178 11.3199C14.896 11.372 14.9482 11.4633 14.9482 11.5285C14.9482 11.6067 14.896 11.6328 14.8308 11.5806C14.7656 11.5415 14.6744 11.5676 14.6222 11.6458C14.5831 11.711 14.6353 11.7762 14.7396 11.7762C14.8569 11.7762 14.9482 11.8283 14.9482 11.9066C14.9482 11.9717 14.8048 12.0369 14.6353 12.0369C14.2572 12.0369 14.0356 11.5546 14.3093 11.372C14.4397 11.2808 14.4528 11.2286 14.3485 11.1504C14.205 11.0722 14.1138 10.7072 14.1529 10.4334C14.1659 10.303 14.8178 10.316 14.8178 10.4594ZM11.8453 10.9288C11.7671 11.372 11.6889 11.346 11.6889 10.8506C11.6889 10.642 11.741 10.4855 11.8062 10.5246C11.8584 10.5637 11.8845 10.7463 11.8453 10.9288ZM12.9926 10.6029C12.9926 10.8245 12.5233 10.994 12.3668 10.8375C12.1191 10.5898 12.1843 10.4725 12.6015 10.4725C12.8231 10.4725 12.9926 10.5246 12.9926 10.6029ZM23.3962 10.9027C23.4744 10.9679 23.5526 11.1243 23.5526 11.2547C23.5526 11.372 23.6699 11.6328 23.8264 11.8283C24.1002 12.1803 24.1132 12.5714 23.8525 12.6497C23.7742 12.6757 23.683 12.5714 23.6569 12.402C23.6308 12.2325 23.6048 12.5323 23.6048 13.0538C23.6178 14.1098 23.5005 14.2793 22.8486 14.2272C22.5357 14.188 22.4445 14.1098 22.3532 13.7578C22.1968 13.1842 22.4053 12.8192 22.9008 12.8192C23.1224 12.8192 23.2919 12.754 23.2919 12.6888C23.2919 12.6106 23.0833 12.5584 22.8356 12.5584C22.4705 12.5584 22.3793 12.5063 22.3793 12.2977C22.3793 12.1021 22.4705 12.0369 22.7573 12.0369C23.2006 12.0369 23.4613 11.7762 23.331 11.4372C23.2528 11.2156 23.2267 11.2286 23.1615 11.5154C23.0702 11.9196 22.653 12.0239 22.4184 11.698C22.1837 11.372 22.2098 11.1634 22.5096 10.8636C22.7573 10.6159 23.0311 10.6289 23.3962 10.9027ZM12.8622 12.2325C12.8622 13.0799 12.784 13.2103 12.1973 13.2103C11.8845 13.2103 11.8714 13.0017 12.1843 12.8322C12.3799 12.7149 12.3799 12.7018 12.1322 12.6888C11.9236 12.6888 11.8584 12.5975 11.8453 12.2977C11.8323 11.9587 11.8845 11.9066 12.1843 11.8935C12.5363 11.8805 12.5363 11.8805 12.2234 11.7892C11.7671 11.6719 11.741 11.4112 12.1713 11.359C12.797 11.2808 12.8622 11.359 12.8622 12.2325ZM14.0095 11.8283C13.9704 12.1934 13.9182 12.2325 13.488 12.2716C13.0187 12.3107 12.9926 12.2977 12.9926 11.9196C12.9926 11.4763 13.2533 11.2677 13.7227 11.359C13.9965 11.4112 14.0486 11.4763 14.0095 11.8283ZM11.5585 11.9848C11.5585 12.1543 11.5064 12.2977 11.4282 12.2977C11.363 12.2977 11.2978 12.1934 11.2978 12.076C11.2978 11.8805 11.2848 11.8805 11.1283 12.0891C10.9719 12.2977 10.9328 12.2977 10.8806 12.1412C10.7893 11.9066 10.8936 11.711 11.1674 11.6197C11.4542 11.5154 11.5585 11.6197 11.5585 11.9848ZM2.58905 12.2455C2.79764 12.4411 2.49779 12.8061 2.06757 12.9104C1.67646 13.0017 1.57216 13.0929 1.54609 13.3797C1.50697 13.6405 1.55912 13.7317 1.7286 13.7317C1.85897 13.7317 1.91112 13.6926 1.87201 13.6535C1.70253 13.484 2.05453 13.0669 2.34134 13.106C2.56297 13.132 2.6412 13.2494 2.66727 13.5753C2.69334 13.81 2.6412 14.0968 2.54994 14.2011C2.31527 14.4879 1.70253 14.4227 1.46786 14.0968C1.22016 13.7448 1.19409 12.6497 1.42875 12.4541C1.68949 12.2455 2.44564 12.1021 2.58905 12.2455ZM15.2089 12.4932C15.2089 12.5975 15.0916 12.6888 14.9482 12.6888C14.8048 12.6888 14.6874 12.78 14.6874 12.8843C14.6874 12.9886 14.6222 13.0799 14.557 13.0799C14.4788 13.0799 14.3876 12.9886 14.3485 12.8843C14.205 12.5323 14.4006 12.2977 14.8178 12.2977C15.0785 12.2977 15.2089 12.3629 15.2089 12.4932ZM11.4412 12.7018C11.5455 12.9104 11.5455 13.0147 11.4412 13.119C11.3239 13.2363 11.2717 13.1972 11.2196 12.9756C11.1674 12.8061 11.037 12.6888 10.8806 12.6888C10.7502 12.6888 10.672 12.6236 10.7111 12.5584C10.8545 12.3368 11.2848 12.415 11.4412 12.7018ZM14.0095 12.8713C13.9704 13.2363 13.9182 13.2754 13.488 13.3146C13.0187 13.3537 12.9926 13.3406 12.9926 12.9626C12.9926 12.5714 13.0708 12.5193 13.7357 12.4802C14.0095 12.4541 14.0486 12.5063 14.0095 12.8713ZM15.4696 12.9495C15.4696 13.0147 15.4175 13.0799 15.3393 13.0799C15.2741 13.0799 15.2089 13.0147 15.2089 12.9495C15.2089 12.8713 15.2741 12.8192 15.3393 12.8192C15.4175 12.8192 15.4696 12.8713 15.4696 12.9495ZM15.3393 13.3406C15.5088 13.458 15.4957 13.5101 15.2219 13.7317C14.7917 14.0968 14.4267 14.0707 14.4267 13.6796C14.4267 13.2494 14.9221 13.0669 15.3393 13.3406ZM11.1674 13.471C11.1674 13.5362 11.0501 13.6014 10.9067 13.6014C10.7633 13.6014 10.6459 13.5362 10.6459 13.471C10.6459 13.3928 10.7633 13.3406 10.9067 13.3406C11.0501 13.3406 11.1674 13.3928 11.1674 13.471ZM12.6928 13.6796C12.7319 13.7839 12.6928 13.9534 12.6015 14.0316C12.4711 14.1489 12.419 14.1489 12.3799 14.0186C12.3408 13.9403 12.2104 13.8621 12.067 13.8621C11.9366 13.8621 11.8193 13.7709 11.8193 13.6666C11.8193 13.3928 12.5885 13.4058 12.6928 13.6796ZM14.1399 13.8882C14.179 14.175 14.1138 14.2663 13.853 14.3314C13.2533 14.4749 12.8622 14.2923 12.8622 13.8752C12.8622 13.5232 12.8883 13.5101 13.488 13.5232C14.0486 13.5362 14.1008 13.5623 14.1399 13.8882ZM11.3369 13.9925C11.2848 14.2011 11.2196 14.2272 11.024 14.1098C10.685 13.9273 10.7111 13.7317 11.0892 13.7317C11.3369 13.7317 11.389 13.7839 11.3369 13.9925ZM15.4175 14.3445C15.4827 14.4749 15.5088 14.7486 15.4696 14.9703L15.3784 15.3614L15.235 15.0354C15.1307 14.7877 15.0916 14.7617 15.0916 14.9442C15.0785 15.2701 14.7656 15.1528 14.7135 14.8008C14.6874 14.6052 14.7396 14.514 14.909 14.5009C15.1176 14.4879 15.1046 14.4749 14.883 14.4097L14.6222 14.3445L14.883 14.2402C15.248 14.0968 15.261 14.0968 15.4175 14.3445ZM12.5754 14.6183C12.6015 14.8138 12.5493 14.9051 12.419 14.9051C12.3016 14.9051 12.2104 14.8138 12.2104 14.7095C12.2104 14.5922 12.093 14.514 11.8845 14.514C11.7019 14.514 11.5585 14.4488 11.5585 14.3706C11.5585 14.2923 11.7541 14.2532 12.0539 14.2793C12.432 14.3184 12.5493 14.3836 12.5754 14.6183ZM14.179 14.7356C14.6613 15.2571 15.4175 15.7394 15.6913 15.7134C15.8608 15.6873 15.9911 15.7394 15.9911 15.8177C15.9911 15.9089 15.8738 15.935 15.7043 15.8829C15.4436 15.8177 15.4566 15.8437 15.7956 16.1306C16.0042 16.3131 16.1345 16.4956 16.0824 16.5477C16.0302 16.5999 15.7043 16.3913 15.3653 16.0654C15.0264 15.7525 15.1437 15.9089 15.6391 16.4043C16.1215 16.9128 16.5126 17.3821 16.5126 17.4473C16.5126 17.5125 16.3431 17.3691 16.1345 17.1214C15.7565 16.6781 15.7434 16.6651 15.5479 16.9258C15.3653 17.1605 15.3523 17.1605 15.3393 16.9519C15.3393 16.8346 15.4045 16.7303 15.4827 16.7303C15.5479 16.7303 15.5739 16.6651 15.5348 16.5869C15.4696 16.4956 15.3523 16.5347 15.1959 16.6781C14.9221 16.9258 14.8439 16.7563 15.1046 16.4956C15.3523 16.2479 14.4136 15.3483 14.0747 15.4917C13.9443 15.5569 13.8009 15.6091 13.7488 15.6091C13.6966 15.6221 13.5793 15.7134 13.488 15.8177C13.3446 15.9741 13.3446 15.9741 13.5532 15.8307C13.6966 15.7134 13.7748 15.7003 13.7748 15.8046C13.7748 15.935 13.5923 16.0002 13.3446 15.9611C13.2794 15.948 13.2794 16.0132 13.3316 16.0914C13.3707 16.1697 13.3316 16.287 13.2403 16.3522C13.0969 16.4434 13.1099 16.4956 13.3185 16.652C13.4619 16.7694 13.5141 16.8606 13.4489 16.8606C13.3707 16.8606 13.2403 16.7954 13.149 16.7042C13.0708 16.626 12.9535 16.5999 12.9013 16.652C12.8492 16.7042 12.8883 16.7954 12.9926 16.8606C13.0969 16.9258 13.136 17.0301 13.0708 17.0823C13.0187 17.1344 12.8492 17.0432 12.7058 16.8606C12.4972 16.5999 12.4581 16.5869 12.4972 16.7824C12.5102 16.9128 12.4581 17.0562 12.3538 17.0953C12.2234 17.1344 12.2104 17.0953 12.2886 16.978C12.3408 16.8737 12.1973 16.9519 11.9496 17.1344C11.4151 17.5386 11.3108 17.7732 11.6628 17.7732C11.8323 17.7732 11.9496 17.6689 11.9757 17.4864C12.0148 17.1866 12.4972 17.0562 12.8622 17.2648C12.9926 17.343 12.9013 17.3691 12.5754 17.3821C12.3016 17.3821 12.08 17.4212 12.08 17.4734C12.08 17.5386 13.1621 17.5777 14.4919 17.5777C15.8216 17.5777 16.9037 17.5516 16.9037 17.5125C16.9037 17.4864 16.7212 17.2648 16.4865 17.0301C16.2519 16.7954 16.1345 16.5999 16.2128 16.5999C16.291 16.5999 16.3301 16.4826 16.291 16.3392C16.2519 16.1957 16.291 16.0784 16.3692 16.0784C16.4474 16.0784 16.5126 16.1827 16.5126 16.3C16.5126 16.4956 16.5387 16.5086 16.643 16.3392C16.7473 16.1697 16.7733 16.1827 16.7733 16.3652C16.7733 16.4956 16.6821 16.5999 16.5517 16.5999C16.3822 16.5999 16.4083 16.6781 16.6821 16.9649C17.2036 17.5125 17.1384 17.7211 16.4344 17.8254C16.0954 17.8645 13.6836 17.9036 11.0762 17.9036C7.33453 17.9036 6.33068 17.8645 6.38283 17.7341C6.42194 17.6168 7.02164 17.5777 8.83379 17.5907L11.2326 17.6037L11.5585 17.1996C11.741 16.978 11.8062 16.8476 11.728 16.8997C11.5976 16.978 11.5585 16.8867 11.5585 16.5477C11.5585 16.0132 11.6498 15.948 11.8193 16.3652L11.9366 16.6651L12.0279 16.3652C12.067 16.2088 12.1973 16.0784 12.3016 16.0784C12.419 16.0784 12.4711 16.1566 12.419 16.274C12.3016 16.5999 12.4581 16.4956 13.2664 15.7264C14.0616 14.9703 14.0877 14.7877 13.4228 14.7747C13.2142 14.7747 13.123 14.8529 13.123 15.0354C13.123 15.1789 13.1882 15.2962 13.2533 15.2962C13.3316 15.2962 13.3837 15.3614 13.3837 15.4396C13.3837 15.5178 13.2533 15.5569 13.0969 15.5309C12.797 15.4917 12.6406 15.0746 12.784 14.6965C12.8883 14.4227 13.9182 14.4488 14.179 14.7356ZM12.08 14.8529C12.08 14.9572 12.0279 15.0094 11.9496 14.9703C11.8845 14.9312 11.8193 14.8399 11.8193 14.7617C11.8193 14.6965 11.8845 14.6443 11.9496 14.6443C12.0279 14.6443 12.08 14.7356 12.08 14.8529ZM12.4711 15.4266C12.4711 15.4917 12.2104 15.5569 11.8845 15.5569C11.5585 15.5569 11.2978 15.4917 11.2978 15.4266C11.2978 15.3483 11.5585 15.2962 11.8845 15.2962C12.2104 15.2962 12.4711 15.3483 12.4711 15.4266ZM12.3147 15.7786C12.1061 15.8046 11.7932 15.8046 11.5976 15.7786C11.389 15.7525 11.5585 15.7264 11.9496 15.7264C12.3408 15.7264 12.5102 15.7525 12.3147 15.7786ZM14.5701 16.1045C14.5831 16.5086 14.5831 16.5086 14.6874 16.2088C14.7656 15.922 14.7917 15.9089 14.883 16.1175C15.0133 16.4174 14.8048 16.639 14.5179 16.5217C14.3745 16.4695 14.2963 16.3 14.2963 16.0654C14.2963 15.5439 14.557 15.583 14.5701 16.1045ZM14.1659 16.1436C14.1659 16.2479 14.1138 16.3652 14.0356 16.4043C13.9573 16.4565 13.9052 16.3392 13.9052 16.1436C13.9052 15.948 13.9573 15.8307 14.0356 15.8829C14.1138 15.922 14.1659 16.0393 14.1659 16.1436ZM10.7502 16.4174C10.7893 16.8476 10.4895 17.1214 10.307 16.8346C10.2548 16.7433 10.2809 16.652 10.3591 16.626C10.4504 16.5999 10.5156 16.4956 10.5156 16.3783C10.5156 16.0914 10.1896 16.2479 10.1505 16.5608C10.1245 16.7172 9.99408 16.8606 9.85068 16.8997C9.4726 17.004 9.49868 16.3 9.90283 16.1045C10.4113 15.8568 10.7111 15.9611 10.7502 16.4174ZM19.1591 16.1306C19.2373 16.3392 19.133 16.4956 18.9766 16.3913C18.8202 16.3 18.8332 15.948 18.9766 15.948C19.0418 15.948 19.12 16.0263 19.1591 16.1306ZM9.31616 16.6129C9.30312 16.7824 9.2249 16.9128 9.14668 16.8997C8.9772 16.8606 8.91201 16.5086 9.00327 16.2479C9.13364 15.935 9.38134 16.2349 9.31616 16.6129ZM11.389 16.6912C11.3499 16.8215 11.3239 16.7172 11.3239 16.4695C11.3239 16.2218 11.3499 16.1175 11.389 16.2349C11.4151 16.3652 11.4151 16.5738 11.389 16.6912ZM11.1674 16.4565C11.1674 16.5999 11.1153 16.7563 11.037 16.7954C10.9588 16.8476 10.9067 16.7303 10.9067 16.5477C10.9067 16.3652 10.9719 16.2088 11.037 16.2088C11.1153 16.2088 11.1674 16.3261 11.1674 16.4565ZM13.7748 16.4826C13.7748 16.5477 13.7227 16.5999 13.6445 16.5999C13.5793 16.5999 13.5141 16.5086 13.5141 16.3913C13.5141 16.287 13.5793 16.2349 13.6445 16.274C13.7227 16.3131 13.7748 16.4043 13.7748 16.4826ZM18.5985 16.3392C18.5985 16.4043 18.5464 16.4695 18.4682 16.4695C18.403 16.4695 18.3378 16.4043 18.3378 16.3392C18.3378 16.2609 18.403 16.2088 18.4682 16.2088C18.5464 16.2088 18.5985 16.2609 18.5985 16.3392ZM8.56001 16.5477C8.56001 16.7303 8.15586 16.991 7.88209 16.978C7.59527 16.9649 7.59527 16.9519 7.94727 16.8215C8.14283 16.7433 8.29927 16.639 8.29927 16.5738C8.29927 16.5217 8.36446 16.4695 8.42964 16.4695C8.50786 16.4695 8.56001 16.5086 8.56001 16.5477ZM14.8308 16.978C15.2219 17.2909 15.1046 17.4473 14.6353 17.2387C14.3615 17.1083 14.2311 17.1083 13.9704 17.2517C13.5271 17.4864 13.3837 17.2909 13.7748 16.991C14.192 16.6651 14.4528 16.6651 14.8308 16.978ZM11.2978 17.2517C11.2978 17.33 10.3852 17.3821 8.82075 17.3821C7.25631 17.3821 6.34371 17.33 6.34371 17.2517C6.34371 17.1735 7.25631 17.1214 8.82075 17.1214C10.3852 17.1214 11.2978 17.1735 11.2978 17.2517ZM18.7941 17.2517C18.755 17.3169 18.3639 17.3821 17.9336 17.3821C17.5034 17.3821 17.1645 17.33 17.1645 17.2517C17.1645 17.1735 17.5425 17.1214 18.0249 17.1214C18.5594 17.1214 18.8462 17.1735 18.7941 17.2517ZM16.0302 17.343C15.939 17.3691 15.7565 17.3691 15.6391 17.343C15.5088 17.3039 15.587 17.2778 15.7956 17.2778C16.0172 17.2778 16.1085 17.3039 16.0302 17.343ZM18.7941 17.7732C18.755 17.8384 18.3639 17.9036 17.9336 17.9036C17.5034 17.9036 17.1645 17.8514 17.1645 17.7732C17.1645 17.695 17.5425 17.6429 18.0249 17.6429C18.5594 17.6429 18.8462 17.695 18.7941 17.7732ZM7.64742 18.6858C7.64742 19.116 7.60831 19.2073 7.38668 19.2073C7.16505 19.2073 7.12594 19.116 7.12594 18.6858C7.12594 18.2556 7.16505 18.1643 7.38668 18.1643C7.60831 18.1643 7.64742 18.2556 7.64742 18.6858ZM8.50786 18.4772C8.61216 18.9335 8.53394 19.2464 8.2732 19.2855C8.07764 19.3116 8.03853 19.2073 8.03853 18.738C8.03853 18.0992 8.36446 17.9166 8.50786 18.4772ZM9.36831 18.3208C9.45957 19.0509 9.42046 19.2073 9.19883 19.2073C9.00327 19.2073 8.95112 19.103 8.95112 18.6858C8.95112 18.3077 9.00327 18.1643 9.14668 18.1643C9.25097 18.1643 9.35527 18.2426 9.36831 18.3208ZM10.2548 18.751C10.2548 19.1812 10.2027 19.3377 10.0723 19.3377C9.78549 19.3377 9.73334 19.1812 9.8246 18.6467C9.9289 17.9297 10.2548 18.0079 10.2548 18.751ZM11.1674 18.764C11.1674 19.2594 11.1283 19.3507 10.9458 19.3116C10.7763 19.2855 10.6981 19.116 10.672 18.7119C10.6329 18.2295 10.659 18.1643 10.8936 18.1643C11.1283 18.1643 11.1674 18.2426 11.1674 18.764ZM12.08 18.6728C12.08 19.1421 11.8453 19.442 11.6368 19.2464C11.5325 19.1421 11.5325 18.3599 11.6498 18.2556C11.8845 18.0079 12.08 18.1904 12.08 18.6728ZM12.9665 18.4642C13.0448 18.8814 12.8753 19.3377 12.6667 19.2594C12.5363 19.2073 12.4711 18.9987 12.4711 18.6597C12.4711 18.2426 12.5102 18.1513 12.6928 18.1904C12.8231 18.2165 12.9405 18.3338 12.9665 18.4642ZM13.7748 18.751C13.7748 19.2073 13.7357 19.3116 13.5793 19.2594C13.4489 19.2073 13.3837 18.9987 13.3837 18.6728C13.3837 18.3077 13.4359 18.1643 13.5793 18.1643C13.7227 18.1643 13.7748 18.3208 13.7748 18.751ZM14.6874 18.7249C14.6874 19.1421 14.6353 19.2986 14.4919 19.2986C14.3485 19.2986 14.2963 19.1421 14.2963 18.7249C14.2963 18.3077 14.3485 18.1643 14.4919 18.1643C14.6353 18.1643 14.6874 18.3077 14.6874 18.7249ZM15.6261 18.386C15.7173 18.751 15.5479 19.2725 15.3393 19.2725C15.1307 19.2725 15.0003 18.6728 15.1307 18.3469C15.235 18.0861 15.5609 18.1252 15.6261 18.386ZM16.5126 18.6858C16.5126 19.116 16.4735 19.2073 16.2519 19.2073C16.0302 19.2073 15.9911 19.116 15.9911 18.6858C15.9911 18.2556 16.0302 18.1643 16.2519 18.1643C16.4735 18.1643 16.5126 18.2556 16.5126 18.6858ZM17.4252 18.6858C17.4252 19.116 17.3861 19.2073 17.1645 19.2073C16.9559 19.2073 16.9037 19.116 16.9037 18.7771C16.9037 18.3077 16.9819 18.1643 17.2557 18.1643C17.373 18.1643 17.4252 18.3338 17.4252 18.6858ZM18.2856 18.4772C18.3769 18.8814 18.2335 19.3637 18.0379 19.2986C17.9467 19.2725 17.8685 19.0117 17.8424 18.7119C17.8163 18.2947 17.8424 18.1643 17.9988 18.1643C18.1162 18.1643 18.2335 18.3077 18.2856 18.4772ZM24.9215 23.4443V27.2251H12.797H0.672604L0.633493 23.4313L0.607419 19.6245L12.7579 19.6506L24.9215 19.6636V23.4443Z" fill="#FFFDFD"/>
<path d="M10.6979 2.02482C10.737 2.24645 10.8022 2.46808 10.8413 2.49415C10.9848 2.63756 11.0499 2.37682 10.9717 2.01178C10.8544 1.46422 10.5936 1.47726 10.6979 2.02482Z" fill="white"/>
<path d="M9.69465 1.81602C9.52517 1.9855 9.60339 2.12891 9.87717 2.12891C10.0206 2.12891 10.1249 2.06372 10.0988 1.97246C10.0336 1.78994 9.81198 1.69868 9.69465 1.81602Z" fill="white"/>
<path d="M14.0357 1.68595C13.9053 1.82936 13.9184 1.86847 14.14 1.86847C14.2834 1.86847 14.4399 1.94669 14.4659 2.02491C14.505 2.11617 14.5442 2.06402 14.5442 1.92062C14.5572 1.56862 14.2443 1.42521 14.0357 1.68595Z" fill="white"/>
<path d="M15.0915 2.22035C15.0915 2.6245 15.1176 2.66361 15.2089 2.45502C15.3653 2.08998 15.3653 1.73798 15.2089 1.73798C15.1437 1.73798 15.0785 1.95961 15.0915 2.22035Z" fill="white"/>
<path d="M13.9316 2.25963C13.9316 2.44215 13.9577 2.50734 13.9968 2.41608C14.0229 2.33786 14.0229 2.18141 13.9968 2.09015C13.9577 2.01193 13.9316 2.07711 13.9316 2.25963Z" fill="white"/>
<path d="M7.45219 2.87149C7.50434 3.00186 7.58256 3.21045 7.60863 3.32778C7.64774 3.45815 7.72597 3.52334 7.79115 3.49726C7.92152 3.406 7.66078 2.64986 7.4913 2.64986C7.41308 2.64986 7.40004 2.75415 7.45219 2.87149Z" fill="white"/>
<path d="M6.56536 3.13312C6.39588 3.3026 6.4741 3.40689 6.73484 3.34171C6.87825 3.3026 6.95647 3.22437 6.91736 3.15919C6.83914 3.01578 6.68269 3.00275 6.56536 3.13312Z" fill="white"/>
<path d="M6.60449 3.88843C6.60449 3.99273 6.65664 4.08398 6.73486 4.08398C6.80005 4.08398 6.82612 3.99273 6.78701 3.88843C6.73486 3.78413 6.68271 3.69287 6.65664 3.69287C6.63057 3.69287 6.60449 3.78413 6.60449 3.88843Z" fill="white"/>
<path d="M18.5464 4.1759C18.4682 4.35842 18.4813 4.37146 18.6116 4.25412C18.7029 4.16286 18.742 4.05857 18.7029 4.01946C18.6638 3.98035 18.5856 4.04553 18.5464 4.1759Z" fill="white"/>
<path d="M20.2153 5.17978C20.098 5.37534 20.0328 5.55786 20.0719 5.59697C20.111 5.63608 20.2414 5.51875 20.3718 5.33623C20.4891 5.14067 20.5543 4.95816 20.5152 4.91904C20.4761 4.87993 20.3457 4.99727 20.2153 5.17978Z" fill="white"/>
<path d="M5.07904 4.48813C5.20941 4.56635 5.36585 4.74887 5.43104 4.90531C5.53533 5.17909 5.54837 5.17909 5.54837 4.91835C5.56141 4.60546 5.32674 4.34472 5.05296 4.34472C4.88348 4.35776 4.89652 4.38383 5.07904 4.48813Z" fill="white"/>
<path d="M4.64844 4.95826C4.64844 5.02344 4.7397 5.19293 4.84399 5.33633C5.00044 5.54493 5.02651 5.54493 5.03955 5.37544C5.03955 5.25811 4.94829 5.08863 4.84399 4.99737C4.7397 4.90611 4.64844 4.89307 4.64844 4.95826Z" fill="white"/>
<path d="M3.99689 5.518C3.87956 5.72659 3.8926 5.75266 4.06208 5.70052C4.16637 5.64837 4.25763 5.54407 4.25763 5.43977C4.25763 5.17903 4.16637 5.21815 3.99689 5.518Z" fill="white"/>
<path d="M9.14677 6.43138C9.10766 6.5096 9.15981 6.52264 9.26411 6.48353C9.49877 6.39227 9.53789 6.30101 9.35537 6.30101C9.27714 6.30101 9.18589 6.35316 9.14677 6.43138Z" fill="black"/>
<path d="M9.30264 6.69221C9.12012 6.83562 8.92456 7.07028 8.88545 7.20065C8.84634 7.34406 8.57256 7.53962 8.28575 7.65695C7.8816 7.82643 7.69908 7.99591 7.51656 8.42614C7.37316 8.72599 7.25582 9.10406 7.25582 9.27354C7.25582 9.44302 7.08634 9.79502 6.87775 10.0558C6.42145 10.6294 6.26501 11.1509 6.46056 11.4768C6.59094 11.6984 6.59094 11.6854 6.60397 11.4377C6.60397 11.2812 6.79953 10.8641 7.03419 10.499C7.2819 10.147 7.51656 9.62554 7.55568 9.35176C7.64694 8.81725 8.02501 8.32184 8.12931 8.62169C8.16842 8.69991 8.24664 8.75206 8.31182 8.69991C8.37701 8.6608 8.42916 8.69991 8.42916 8.77814C8.42916 8.86939 8.52042 8.84332 8.63775 8.72599C8.74205 8.60865 8.80723 8.46525 8.75508 8.38702C8.71597 8.3088 8.76812 8.29576 8.87242 8.33488C9.05493 8.40006 9.0419 8.46525 8.82027 8.77814C8.53345 9.18228 8.48131 9.42999 8.6899 9.42999C8.76812 9.42999 8.82027 9.37784 8.82027 9.31265C8.82027 9.24747 8.97671 9.0128 9.15923 8.79117C9.36782 8.53043 9.43301 8.38702 9.31568 8.38702C9.18531 8.38702 9.18531 8.36095 9.32871 8.26969C9.43301 8.20451 9.47212 8.0611 9.43301 7.93073C9.38086 7.81339 9.2896 7.76125 9.21138 7.80036C9.14619 7.83947 9.08101 7.82643 9.08101 7.74821C9.08101 7.68302 9.23745 7.59177 9.44605 7.53962C9.78501 7.46139 10.3326 6.67917 10.1631 6.50969C10.0066 6.35325 9.62856 6.43147 9.30264 6.69221ZM9.82412 6.83562C9.70679 6.91384 9.62856 7.01814 9.66768 7.09636C9.71982 7.16154 9.6416 7.21369 9.52427 7.21369C9.31568 7.21369 9.31568 7.20065 9.53731 6.95295C9.66768 6.80954 9.83716 6.69221 9.91538 6.69221C9.9936 6.69221 9.95449 6.75739 9.82412 6.83562ZM8.6899 7.96984C8.6899 8.02199 8.55953 8.13932 8.40308 8.24362C8.10323 8.42614 8.10323 8.42614 8.35094 8.13932C8.61168 7.85251 8.6899 7.81339 8.6899 7.96984Z" fill="white"/>
<path d="M17.6208 9.55976C17.6078 10.0552 17.6729 10.355 17.7772 10.3941C17.8555 10.4332 18.051 10.6809 18.2075 10.9547C18.4682 11.4241 18.4812 11.4371 18.403 11.059C18.3639 10.8374 18.2075 10.5115 18.0771 10.3159C17.9076 10.0812 17.8424 9.84657 17.8946 9.59887C17.9337 9.39028 17.8946 9.12954 17.7903 8.99916C17.6469 8.80361 17.6208 8.88183 17.6208 9.55976Z" fill="white"/>
<path d="M8.55957 9.70291C8.55957 9.7681 8.62476 9.79417 8.68994 9.75506C8.76816 9.71595 8.82031 9.65076 8.82031 9.61165C8.82031 9.58558 8.76816 9.55951 8.68994 9.55951C8.62476 9.55951 8.55957 9.62469 8.55957 9.70291Z" fill="white"/>
<path d="M21.5316 6.56153C21.5838 6.74405 21.5447 6.92656 21.3882 7.09605C21.2709 7.22642 21.2187 7.34375 21.297 7.34375C21.5186 7.34375 21.8836 6.84834 21.8315 6.61368C21.8184 6.48331 21.7141 6.36597 21.6098 6.32686C21.4925 6.28775 21.4664 6.35294 21.5316 6.56153Z" fill="white"/>
<path d="M22.066 7.56555C21.9878 7.74807 22.0008 7.76111 22.1312 7.64377C22.2224 7.55251 22.2615 7.44822 22.2224 7.40911C22.1833 7.36999 22.1051 7.43518 22.066 7.56555Z" fill="white"/>
<path d="M21.5967 7.87772C21.5967 7.9429 21.6619 7.96898 21.7271 7.92987C21.8053 7.89075 21.8574 7.82557 21.8574 7.78646C21.8574 7.76038 21.8053 7.73431 21.7271 7.73431C21.6619 7.73431 21.5967 7.7995 21.5967 7.87772Z" fill="white"/>
<path d="M2.3807 8.07389C2.2373 8.465 2.30248 8.55626 2.55018 8.30856C2.68056 8.17819 2.77181 8.02174 2.7327 7.95656C2.64144 7.80011 2.45893 7.85226 2.3807 8.07389Z" fill="white"/>
<path d="M12.3408 8.98589C12.3408 9.09019 12.406 9.14234 12.4712 9.10323C12.5494 9.06411 12.6016 8.97286 12.6016 8.89463C12.6016 8.82945 12.5494 8.7773 12.4712 8.7773C12.406 8.7773 12.3408 8.86856 12.3408 8.98589Z" fill="white"/>
<path d="M2.30176 10.2116C2.30176 10.2768 2.41909 10.3941 2.57554 10.4723C2.82324 10.6157 2.83628 10.6027 2.69287 10.355C2.54946 10.0682 2.30176 9.97693 2.30176 10.2116Z" fill="white"/>
<path d="M1.65039 11.1245C1.65039 11.1896 1.81987 11.2548 2.01543 11.2548C2.21098 11.2548 2.44565 11.32 2.53691 11.4113C2.65424 11.5286 2.69335 11.5156 2.69335 11.307C2.69335 11.1114 2.58906 11.0462 2.17187 11.0202C1.88506 11.0071 1.65039 11.0462 1.65039 11.1245Z" fill="white"/>
<path d="M22.5752 13.4712C22.523 13.5494 22.6664 13.6016 22.8881 13.6016C23.1097 13.6016 23.2922 13.5494 23.2922 13.4973C23.2922 13.3539 22.6664 13.3278 22.5752 13.4712Z" fill="white"/>
<path d="M13.3838 11.8416C13.3838 11.9459 13.449 12.0371 13.5142 12.0371C13.5924 12.0371 13.6445 11.9459 13.6445 11.8416C13.6445 11.7373 13.5924 11.646 13.5142 11.646C13.449 11.646 13.3838 11.7373 13.3838 11.8416Z" fill="white"/>
<path d="M13.332 12.8845C13.2798 13.0149 13.345 13.0801 13.5145 13.0801C13.6579 13.0801 13.7752 12.9888 13.7752 12.8845C13.7752 12.7802 13.697 12.689 13.5927 12.689C13.4884 12.689 13.3841 12.7802 13.332 12.8845Z" fill="white"/>
<path d="M13.2529 13.9927C13.2529 14.0579 13.3703 14.123 13.5137 14.123C13.6571 14.123 13.7744 14.0579 13.7744 13.9927C13.7744 13.9145 13.6571 13.8623 13.5137 13.8623C13.3703 13.8623 13.2529 13.9145 13.2529 13.9927Z" fill="white"/>
<path d="M13.9577 15.3349C13.7491 15.5695 13.7491 15.5826 13.9316 15.4392C14.062 15.3479 14.2836 15.2957 14.4271 15.3349C14.753 15.4131 14.766 15.3479 14.4401 15.1784C14.2576 15.0741 14.1402 15.1002 13.9577 15.3349Z" fill="white"/>
<path d="M12.9276 16.2085C12.8885 16.2737 12.9015 16.3389 12.9798 16.3389C13.0449 16.3389 13.1492 16.2737 13.1883 16.2085C13.2275 16.1303 13.2144 16.0781 13.1362 16.0781C13.071 16.0781 12.9667 16.1303 12.9276 16.2085Z" fill="white"/>
<path d="M18.5204 20.1847C18.2858 20.3542 18.2858 20.3802 18.5074 20.6019C18.6769 20.7713 18.7812 20.7974 18.9507 20.6931C19.2766 20.4845 19.3027 20.289 19.0158 20.1325C18.8333 20.0413 18.703 20.0543 18.5204 20.1847Z" fill="white"/>
<path d="M7.97311 21.1625C7.32126 22.1925 7.02141 22.2968 6.33044 21.8013C5.95237 21.5406 5.9263 21.5406 5.67859 21.7492C5.33963 22.0621 5.3657 22.1273 5.87415 22.4011C6.57815 22.7791 7.34733 22.6096 7.89489 21.9578L8.33815 21.4233L8.70318 22.0099C8.91178 22.3359 9.13341 22.5966 9.21163 22.5966C9.28985 22.5966 9.45933 22.3359 9.5897 22.023C9.87652 21.3581 10.4632 20.9018 11.0107 20.9018C11.3236 20.9018 11.4149 20.8366 11.454 20.5759C11.5192 20.2891 11.4801 20.2499 11.1411 20.2499C10.5936 20.2499 9.92867 20.5889 9.73311 20.967C9.64185 21.1495 9.52452 21.2929 9.48541 21.2929C9.4463 21.2929 9.27681 21.0582 9.10733 20.7714C8.95089 20.4846 8.75533 20.2499 8.69015 20.2499C8.61193 20.2499 8.29904 20.6541 7.97311 21.1625Z" fill="white"/>
<path d="M12.914 21.1112C12.6141 21.8282 12.4707 22.0107 12.1057 22.1672C11.858 22.2715 11.5581 22.3106 11.4408 22.2585C11.2843 22.1933 11.3365 22.1411 11.6754 22.0238C12.5489 21.7109 12.575 21.033 11.7276 21.033C11.0627 21.033 10.3848 21.4502 10.3848 21.8543C10.3848 22.5062 11.1409 22.7799 12.0665 22.454C12.3664 22.3497 12.5228 22.3497 12.6532 22.454C12.7575 22.5453 13.1225 22.6105 13.4615 22.5974C13.8135 22.5974 14.3089 22.5974 14.5566 22.6105C15.5344 22.6235 17.5291 22.4931 17.6725 22.4019C17.7637 22.3497 17.9462 22.4149 18.0897 22.5453C18.3504 22.7799 18.3765 22.7799 18.9371 22.4801C19.4585 22.1933 19.7714 21.8152 19.3151 21.9977C19.2108 22.0368 19.0283 22.115 18.924 22.1542C18.7024 22.2454 18.6502 21.8282 18.8458 21.6196C18.911 21.5414 19.0022 21.3719 19.0414 21.2155C19.1196 20.9808 19.0805 20.9547 18.7285 21.0069C18.4938 21.033 18.3113 21.1633 18.2722 21.3067C18.1809 21.5805 17.6985 22.0759 17.5291 22.0759C17.4639 22.0759 17.503 21.9065 17.6203 21.6848C17.9071 21.1373 17.868 20.9939 17.4639 21.059C17.2553 21.0982 16.9294 21.0851 16.7077 21.033C16.1602 20.9156 15.6387 21.2025 15.4171 21.75C15.2867 22.0629 15.1302 22.2063 14.9608 22.2063C14.8043 22.2063 14.687 22.1933 14.687 22.1672C14.687 22.1411 14.8304 21.763 15.0129 21.3198C15.1954 20.8765 15.3388 20.4854 15.3388 20.4463C15.3388 20.4072 15.1954 20.3811 15.0129 20.3811C14.7391 20.3811 14.6218 20.5245 14.2698 21.2155C13.8917 21.9847 13.4876 22.3497 13.3181 22.0759C13.279 22.0238 13.4094 21.6327 13.5919 21.2285C13.8787 20.6158 13.9048 20.4593 13.7614 20.3681C13.4094 20.1465 13.279 20.2638 12.914 21.1112ZM11.7145 21.5805C11.6363 21.6587 11.519 21.6848 11.4668 21.6327C11.4147 21.5805 11.4538 21.4893 11.5581 21.4241C11.8058 21.2676 11.9101 21.385 11.7145 21.5805ZM16.46 21.8804C16.2384 22.2193 15.9907 22.2193 15.9907 21.8804C15.9907 21.5936 16.3948 21.2546 16.5513 21.411C16.6425 21.5023 16.6034 21.6457 16.46 21.8804Z" fill="white"/>
<path d="M11.3239 23.9793C10.9328 24.2531 10.9589 24.6181 11.4282 24.9701C11.6499 25.1266 11.8193 25.3091 11.8193 25.3743C11.8193 25.4394 11.6499 25.4655 11.4282 25.4134C11.0762 25.3482 11.0371 25.3743 11.0371 25.6611C11.0371 26.2738 12.2626 26.2347 12.6016 25.5959C12.771 25.283 12.6667 25.0092 12.2626 24.7485C11.8454 24.4747 11.8584 24.24 12.2756 24.3443C12.5364 24.4095 12.6016 24.3834 12.6016 24.1749C12.6016 23.7446 11.8324 23.6273 11.3239 23.9793Z" fill="white"/>
<path d="M21.727 23.9398C21.2447 24.1875 21.2447 24.6047 21.714 24.9567C22.2225 25.3348 22.2225 25.5173 21.727 25.413C21.375 25.3478 21.3359 25.3739 21.3359 25.6476C21.3359 26.3256 22.8091 26.1822 22.9395 25.4912C22.9916 25.2435 22.9134 25.074 22.6266 24.8263C22.1573 24.4222 22.1442 24.2396 22.5745 24.3179C23.0047 24.4091 23.0308 23.9659 22.6136 23.8485C22.1964 23.7442 22.0921 23.7573 21.727 23.9398Z" fill="white"/>
<path d="M2.51108 24.7217C2.52412 25.165 2.53716 25.6343 2.5502 25.7517C2.56323 25.9603 2.70664 25.9863 3.67138 25.9863C4.32323 25.9863 4.77953 25.9342 4.77953 25.856C4.77953 25.7777 4.89686 25.7256 5.04027 25.7256C5.18368 25.7256 5.30101 25.7777 5.30101 25.856C5.30101 25.9211 5.48353 25.9863 5.69212 25.9863C6.16145 25.9863 6.16145 25.9603 5.80945 24.8L5.53568 23.8874L5.06634 23.9265C4.59701 23.9656 4.58397 23.9786 4.33627 24.8391C4.2059 25.3345 4.03642 25.7256 3.98427 25.7256C3.91908 25.7256 3.86694 25.6604 3.86694 25.5952C3.86694 25.517 3.7496 25.4648 3.6062 25.4648C3.37153 25.4648 3.34545 25.3736 3.34545 24.6826V23.9004H2.92827H2.49805L2.51108 24.7217ZM5.17064 24.9434C5.17064 25.0868 5.11849 25.2041 5.04027 25.2041C4.97508 25.2041 4.9099 25.0868 4.9099 24.9434C4.9099 24.8 4.97508 24.6826 5.04027 24.6826C5.11849 24.6826 5.17064 24.8 5.17064 24.9434Z" fill="white"/>
<path d="M6.34375 24.9303V25.9733L7.4519 26.0124C8.27323 26.0385 8.56005 26.0124 8.56005 25.882C8.56005 25.8038 8.70345 25.7256 8.88597 25.7256C9.06849 25.7256 9.2119 25.7777 9.2119 25.856C9.2119 25.9211 9.35531 25.9863 9.53782 25.9863C9.92893 25.9863 9.9159 26.0385 9.62908 24.8782L9.39442 23.9656L8.87294 23.9265L8.35145 23.8874L8.10375 24.8782C7.88212 25.7647 7.64745 26.1688 7.64745 25.6604C7.64745 25.5561 7.53012 25.4648 7.38671 25.4648C7.15205 25.4648 7.12597 25.3736 7.12597 24.6826V23.9004H6.73486H6.34375V24.9303ZM8.92508 25.1911C8.72953 25.2563 8.69042 25.152 8.78168 24.813L8.87294 24.4871L8.95116 24.813C8.99027 24.9955 8.97723 25.165 8.92508 25.1911Z" fill="white"/>
<path d="M12.8623 24.0568C12.8623 24.1481 12.9536 24.6305 13.0709 25.1128C13.2925 25.9863 13.2925 25.9994 13.6967 25.9603C14.0487 25.9211 14.1008 25.869 14.179 25.4257C14.2964 24.7217 14.4007 24.7087 14.4919 25.3866C14.5832 25.9342 14.6223 25.9863 14.9482 25.9863C15.2872 25.9863 15.3393 25.9211 15.5219 25.2954C15.939 23.8483 15.939 23.9004 15.4827 23.9004C15.0916 23.9004 15.0786 23.9265 15.0786 24.4349C15.0786 25.0607 14.883 25.0086 14.7657 24.3567C14.6875 23.9395 14.6353 23.8874 14.3225 23.9265C14.0226 23.9656 13.9574 24.0438 13.8531 24.5523C13.7358 25.178 13.7097 25.165 13.5793 24.3828C13.5142 23.9786 13.449 23.9004 13.1882 23.9004C13.0057 23.9004 12.8623 23.9786 12.8623 24.0568Z" fill="white"/>
<path d="M16.1211 24.9434V25.9863H16.8381C17.4639 25.9863 17.5552 25.9603 17.5552 25.7256C17.5552 25.53 17.4639 25.4648 17.2292 25.4648C17.0467 25.4648 16.9033 25.3997 16.9033 25.3345C16.9033 25.2563 17.0206 25.2041 17.1641 25.2041C17.3335 25.2041 17.4248 25.1128 17.4248 24.9434C17.4248 24.7739 17.3335 24.6826 17.1641 24.6826C17.0206 24.6826 16.9033 24.5914 16.9033 24.4871C16.9033 24.3697 17.0206 24.2915 17.2292 24.2915C17.4378 24.2915 17.5552 24.2133 17.5552 24.096C17.5552 23.9395 17.3857 23.9004 16.8381 23.9004H16.1211V24.9434Z" fill="white"/>
<path d="M17.8818 24.9434V25.9863H18.5467C19.1073 25.9863 19.2377 25.9472 19.2898 25.7256C19.342 25.504 19.2898 25.4648 18.9769 25.4648C18.7684 25.4648 18.5989 25.3997 18.5989 25.3345C18.5989 25.2563 18.7423 25.2041 18.9248 25.2041C19.342 25.2041 19.3941 24.7217 18.99 24.6566C18.8335 24.6305 18.7162 24.5523 18.7162 24.4871C18.7162 24.4088 18.8335 24.3437 18.99 24.3176C19.1334 24.2915 19.2507 24.1872 19.2507 24.0829C19.2507 23.9526 19.0682 23.9004 18.5728 23.9004H17.8818V24.9434Z" fill="white"/>
<path d="M19.5107 24.161C19.5107 24.3305 19.5759 24.3957 19.7063 24.3436C19.8627 24.2784 19.9019 24.4087 19.9019 25.1127C19.9019 25.9471 19.9019 25.9602 20.293 26.0123L20.671 26.0645L20.7101 25.217C20.7362 24.5652 20.8014 24.3566 20.9448 24.3566C21.0491 24.3566 21.1534 24.2523 21.1795 24.1219C21.2186 23.9264 21.1143 23.9003 20.3712 23.9003C19.602 23.9003 19.5107 23.9264 19.5107 24.161Z" fill="white"/>
</svg>
