<?xml version="1.0" standalone="no"?>
<!DOCTYPE svg PUBLIC "-//W3C//DTD SVG 20010904//EN"
 "http://www.w3.org/TR/2001/REC-SVG-20010904/DTD/svg10.dtd">
<svg version="1.0" xmlns="http://www.w3.org/2000/svg"
 width="22.000000pt" height="22.000000pt" color="white" viewBox="0 0 225.000000 225.000000"
 preserveAspectRatio="xMidYMid meet">

<g transform="translate(0.000000,225.000000) scale(0.100000,-0.100000)"
fill="#000000" stroke="none">
<path d="M952 2139 c-77 -13 -197 -55 -273 -95 -89 -47 -220 -153 -283 -230
-68 -82 -147 -235 -182 -349 -25 -81 -27 -105 -27 -245 0 -140 2 -164 27 -244
25 -82 91 -231 116 -261 15 -18 4 -22 -52 -23 -27 0 -64 -1 -83 -1 l-35 -1 0
-309 0 -309 83 -6 c45 -3 479 -5 965 -4 l882 2 0 313 0 313 -47 1 c-27 0 -67
1 -90 1 -24 0 -43 2 -43 4 0 3 15 35 34 72 152 303 154 597 5 883 -121 230
-336 404 -584 470 -91 25 -321 35 -413 18z m212 -81 c-6 -21 -8 -34 -13 -75 0
-7 -10 -13 -21 -13 -17 0 -20 7 -20 45 0 25 -4 45 -8 45 -5 0 -8 -19 -8 -42 1
-37 -2 -43 -21 -46 -22 -3 -23 0 -23 52 l0 56 61 0 c58 0 60 -1 53 -22z m-130
-32 c-3 -48 -22 -68 -68 -68 -20 0 -39 -4 -42 -9 -10 -16 -53 -9 -64 10 -35
66 23 111 140 107 35 -1 36 -2 34 -40z m278 31 c39 -6 58 -25 58 -58 0 -46
-61 -76 -92 -46 -7 7 -29 13 -48 12 -28 0 -36 5 -44 27 -7 19 -6 35 2 54 13
27 25 28 124 11z m153 -49 c43 -15 50 -24 31 -44 -9 -9 -20 -29 -23 -45 -6
-31 -10 -34 -32 -20 -12 8 -13 16 -3 48 6 20 8 41 3 46 -4 4 -13 -11 -20 -33
-11 -38 -33 -52 -46 -29 -4 6 1 31 10 55 13 35 21 44 34 39 9 -4 30 -12 46
-17z m-681 -34 c18 -46 -8 -94 -50 -94 -13 0 -28 -9 -34 -20 -7 -13 -21 -20
-39 -20 -22 0 -31 7 -41 31 -11 27 -11 33 7 57 11 15 34 31 52 36 17 5 31 13
31 17 0 16 68 10 74 -7z m429 -55 c227 -34 443 -199 541 -411 61 -134 77 -342
37 -492 -35 -130 -155 -326 -201 -326 -28 0 -26 5 20 58 119 134 186 362 160
538 -27 175 -83 297 -188 406 -130 136 -264 198 -442 206 -170 7 -292 -34
-430 -146 -148 -118 -233 -287 -254 -504 -16 -158 51 -360 165 -499 38 -47 40
-59 9 -59 -41 0 -159 200 -196 330 -25 88 -25 279 -1 370 35 126 93 227 187
321 170 172 370 242 593 208z m419 -5 c15 -14 20 -15 34 -3 14 11 19 10 35
-10 23 -28 16 -45 -13 -30 -12 6 2 -11 30 -39 29 -27 52 -54 52 -59 0 -17 -41
-63 -55 -63 -8 0 -27 11 -42 25 l-28 24 22 41 c27 50 16 53 -15 4 -22 -33 -25
-35 -39 -21 -14 14 -14 18 6 43 23 29 27 59 10 70 -6 3 -16 1 -22 -5 -8 -8 -8
-11 1 -11 19 0 14 -48 -7 -59 -14 -8 -23 -5 -42 15 -23 25 -23 25 -5 59 21 39
48 45 78 19z m-1038 -50 c29 -29 20 -66 -29 -112 -25 -23 -45 -46 -45 -51 0
-4 -9 -16 -19 -25 -36 -32 -91 8 -76 55 8 25 91 120 119 136 28 16 32 16 50
-3z m552 -33 c-9 -10 -37 -29 -61 -42 -32 -17 -45 -31 -47 -49 -3 -21 -8 -25
-38 -26 -19 -1 -52 -2 -72 -3 -48 -1 -50 -21 -3 -21 33 0 35 -1 24 -21 -10
-20 -9 -21 15 -17 14 3 26 1 26 -3 0 -5 11 -9 25 -9 14 0 25 -4 25 -10 0 -5
12 -10 26 -10 14 0 23 -4 19 -10 -3 -5 1 -10 11 -10 12 0 15 6 11 23 -5 18 -4
20 6 7 7 -8 21 -16 32 -18 73 -10 75 -10 76 12 0 21 0 21 9 -1 6 -15 15 -21
25 -17 22 9 19 35 -5 41 -23 6 -26 19 -7 26 7 2 1 10 -15 17 -18 9 -26 19 -24
34 5 34 17 56 31 56 7 0 12 6 11 13 -4 26 -18 37 -49 38 -18 1 -24 3 -14 6 26
7 108 -13 169 -41 29 -14 47 -25 41 -26 -7 0 -13 -6 -13 -12 0 -7 -12 -24 -25
-37 -29 -27 -31 -43 -10 -61 8 -7 13 -16 10 -20 -5 -8 24 -24 38 -22 4 1 7 -9
7 -22 0 -14 8 -31 18 -38 10 -7 24 -22 30 -33 24 -43 10 5 -18 61 -18 36 -36
59 -46 59 -9 0 -21 10 -25 23 -8 21 -7 22 14 11 12 -7 29 -21 39 -31 12 -14
18 -16 22 -6 3 7 3 3 0 -10 -6 -23 37 -105 44 -84 2 6 16 -1 32 -18 23 -24 30
-27 40 -16 17 22 51 6 63 -28 l11 -31 7 28 c4 16 6 36 3 45 -2 10 11 -14 30
-53 19 -38 40 -97 48 -130 27 -122 8 -308 -42 -405 l-18 -35 -7 38 c-9 44 -19
46 -84 12 l-49 -24 1 39 c1 22 5 40 9 40 4 0 8 11 8 25 0 14 5 25 12 25 9 0 9
3 0 12 -7 7 -12 20 -12 30 0 12 -5 15 -16 11 -9 -3 -20 0 -25 8 -8 12 -11 11
-20 -3 -5 -10 -16 -18 -22 -18 -8 0 -13 -14 -13 -35 0 -27 4 -34 14 -30 10 4
12 0 8 -11 -4 -12 -1 -14 14 -9 18 6 20 2 20 -32 0 -21 -4 -33 -8 -27 -9 15
-53 21 -70 10 -22 -13 -16 -36 -66 259 -27 153 -30 194 -21 210 14 24 12 78
-4 120 -10 24 -14 27 -22 15 -9 -13 -12 -13 -21 2 -11 15 -13 15 -25 0 -12
-16 -12 -16 -13 0 0 9 -5 20 -12 24 -8 5 -9 2 -5 -10 4 -10 3 -15 -3 -11 -6 3
-10 -2 -11 -12 0 -15 -2 -14 -11 4 l-11 23 -23 -28 c-23 -26 -24 -26 -24 -5 0
28 -14 37 -30 18 -17 -21 -27 -19 -33 7 -5 18 -8 19 -21 8 -9 -7 -16 -20 -17
-29 0 -10 -4 -7 -10 8 -12 30 -26 19 -47 -36 -22 -60 -25 -92 -11 -110 12 -14
12 -16 0 -8 -11 6 -13 4 -8 -8 7 -18 -70 -406 -84 -423 -5 -6 -6 -14 -2 -17 3
-4 -1 -7 -11 -7 -9 0 -14 5 -11 10 8 14 -18 13 -50 -2 -32 -14 -39 -7 -30 32
5 23 13 32 35 36 41 9 49 56 16 95 -23 28 -24 28 -41 8 -10 -10 -29 -19 -41
-19 -17 0 -22 -4 -18 -15 4 -8 1 -15 -5 -15 -6 0 -11 -4 -11 -10 0 -5 7 -10
15 -10 8 0 15 -4 15 -10 0 -5 7 -7 15 -4 17 7 19 1 6 -24 -18 -32 -24 -57 -22
-84 2 -16 -2 -28 -8 -28 -6 0 -11 11 -11 25 0 14 -3 25 -7 25 -5 0 -18 3 -30
6 -18 5 -23 2 -23 -13 0 -11 -7 -28 -15 -39 -8 -10 -15 -32 -15 -47 0 -41 -19
-30 -51 30 -79 146 -97 344 -46 499 28 86 102 208 156 258 29 28 31 28 31 9 0
-12 -7 -29 -16 -37 -8 -9 -12 -16 -7 -17 4 -1 -3 -5 -17 -9 -23 -7 -23 -8 -3
-9 12 -1 25 -6 28 -11 4 -6 11 -8 16 -5 5 3 6 -2 3 -12 -4 -13 0 -12 18 7 13
14 32 26 43 28 29 4 70 53 54 63 -7 4 -17 5 -21 3 -4 -3 -8 0 -8 6 0 6 8 9 18
6 12 -4 26 1 37 14 18 19 17 20 -16 19 -93 -4 -101 7 -34 47 90 52 191 80 299
83 48 1 49 0 32 -18z m679 -127 c14 -15 25 -31 25 -36 0 -4 11 -6 24 -2 18 4
28 -1 45 -22 31 -39 28 -68 -5 -63 -4 0 -10 -3 -13 -8 -3 -5 -21 -21 -40 -35
l-35 -26 -32 46 c-18 25 -31 49 -29 52 3 4 -4 15 -15 25 -26 23 -25 43 2 72
28 30 43 29 73 -3z m-635 -10 c0 -16 -16 -19 -25 -4 -8 13 4 32 16 25 5 -4 9
-13 9 -21z m-440 12 c0 -3 -4 -8 -10 -11 -5 -3 -10 -1 -10 4 0 6 5 11 10 11 6
0 10 -2 10 -4z m-318 -53 c25 -23 23 -69 -6 -98 -13 -13 -22 -26 -19 -28 8 -9
-27 -67 -40 -67 -7 0 -23 7 -36 16 -20 14 -23 23 -18 60 2 24 1 44 -4 44 -18
0 -8 40 12 51 20 10 21 9 16 -17 -4 -16 -4 -23 -1 -16 8 16 35 15 61 -3 28
-19 39 -3 13 20 -12 11 -26 14 -39 10 -25 -8 -27 2 -4 27 20 22 41 23 65 1z
m588 -114 c0 -5 -4 -9 -10 -9 -5 0 -10 7 -10 16 0 8 5 12 10 9 6 -3 10 -10 10
-16z m50 11 c0 -5 -4 -10 -10 -10 -5 0 -10 5 -10 10 0 6 5 10 10 10 6 0 10 -4
10 -10z m116 -16 c-5 -12 -2 -15 9 -10 9 3 13 2 10 -3 -3 -5 -1 -12 5 -16 5
-3 10 -16 9 -28 l0 -22 -9 23 c-5 12 -13 22 -18 22 -5 0 -14 -10 -20 -22 l-11
-23 0 22 c-1 12 3 24 8 27 5 3 7 15 4 26 -3 12 0 20 7 20 7 0 10 -7 6 -16z
m93 -1 c-1 -10 1 -26 5 -35 5 -10 6 -23 3 -30 -4 -8 -8 -5 -12 10 -4 12 -11
22 -16 22 -6 0 -14 -10 -19 -22 l-9 -23 0 22 c-1 12 3 24 9 28 5 3 8 11 6 18
-1 7 -1 9 1 5 8 -15 22 -8 17 7 -4 8 -1 15 6 15 6 0 10 -8 9 -17z m651 -34 c0
-5 -16 -17 -36 -26 -37 -18 -38 -21 -18 -90 3 -13 2 -23 -3 -23 -5 0 -19 30
-30 66 l-22 65 42 18 c41 18 67 14 67 -10z m-886 -1 c18 -25 21 -68 6 -68 -5
0 -10 6 -10 13 0 7 -7 22 -15 33 -13 16 -16 17 -25 4 -6 -8 -8 -28 -6 -45 l5
-30 -15 28 c-32 59 24 117 60 65z m84 10 c23 -23 14 -44 -18 -44 -21 0 -30 5
-30 16 0 16 18 40 30 40 3 0 11 -5 18 -12z m192 -39 c0 -17 -5 -29 -13 -29 -9
0 -12 11 -9 35 5 41 22 37 22 -6z m-120 1 c0 -5 -4 -10 -10 -10 -5 0 -10 5
-10 10 0 6 5 10 10 10 6 0 10 -4 10 -10z m-174 -38 c-10 -10 -29 15 -21 28 6
9 10 8 17 -4 6 -10 7 -20 4 -24z m930 12 c-4 -25 -34 -38 -52 -23 -14 12 -14
14 2 26 25 18 53 16 50 -3z m-1592 -10 c12 -11 16 -35 16 -89 0 -40 3 -81 6
-89 5 -12 2 -15 -10 -10 -9 3 -16 14 -16 23 0 13 -2 13 -9 2 -7 -10 -21 -12
-55 -7 l-47 7 7 52 c4 29 8 59 10 67 1 8 3 21 3 28 2 25 21 11 22 -15 l1 -28
8 29 c14 45 38 56 64 30z m780 -29 c3 -8 0 -15 -7 -16 -7 0 -20 -2 -29 -4 -10
-2 -20 1 -24 6 -3 5 7 9 23 10 25 0 26 1 8 9 -19 8 -19 9 1 9 12 1 24 -6 28
-14z m68 -3 c9 -9 5 -12 -20 -12 -23 0 -30 4 -26 14 6 16 29 15 46 -2z m67 -9
c2 -2 -5 -3 -17 -3 -14 0 -22 6 -22 16 0 14 3 15 18 3 9 -7 19 -15 21 -16z
m14 20 c-7 -2 -19 -2 -25 0 -7 3 -2 5 12 5 14 0 19 -2 13 -5z m-248 -22 c-6
-5 -19 -11 -30 -13 -11 -2 -21 -12 -23 -23 -3 -16 -1 -18 9 -7 23 22 39 14 38
-20 0 -26 -2 -29 -8 -14 -7 18 -8 18 -14 3 -8 -22 -27 -22 -28 1 -1 19 -47
-202 -48 -230 -1 -14 7 -18 37 -18 l37 -1 -32 -17 c-29 -15 -31 -19 -16 -28
15 -10 14 -11 -9 -16 -49 -9 -52 1 -34 103 31 178 58 278 75 282 30 9 55 7 46
-2z m178 -33 c8 -30 1 -38 -34 -38 -29 0 -35 12 -23 44 9 24 51 20 57 -6z m67
13 c0 -5 -7 -11 -15 -15 -8 -3 -15 -10 -15 -15 0 -6 8 -7 17 -4 12 5 15 2 10
-10 -3 -9 -2 -19 3 -22 6 -4 10 -11 10 -16 0 -6 -4 -8 -9 -4 -5 3 -12 1 -16
-5 -3 -5 1 -10 9 -10 9 0 16 -4 16 -10 0 -5 -11 -10 -24 -10 -29 0 -46 37 -25
51 10 7 11 11 3 17 -11 6 -18 34 -15 55 1 10 51 9 51 -2z m-228 -36 c-6 -34
-12 -32 -12 6 0 16 4 28 9 25 4 -3 6 -17 3 -31z m88 25 c0 -17 -36 -30 -48
-18 -19 19 -14 28 18 28 17 0 30 -4 30 -10z m798 -23 c6 -5 12 -17 12 -27 0
-9 9 -29 21 -44 21 -27 22 -57 2 -63 -6 -2 -13 6 -15 19 -2 13 -4 -10 -4 -50
1 -81 -8 -94 -58 -90 -24 3 -31 9 -38 36 -12 44 4 72 42 72 17 0 30 5 30 10 0
6 -16 10 -35 10 -28 0 -35 4 -35 20 0 15 7 20 29 20 34 0 54 20 44 46 -6 17
-8 16 -13 -6 -7 -31 -39 -39 -57 -14 -18 25 -16 41 7 64 19 19 40 18 68 -3z
m-808 -102 c0 -65 -6 -75 -51 -75 -24 0 -25 16 -1 29 15 9 15 10 -4 11 -16 0
-21 7 -22 30 -1 26 3 30 26 31 27 1 27 1 3 8 -35 9 -37 29 -4 33 48 6 53 0 53
-67z m88 31 c-3 -28 -7 -31 -40 -34 -36 -3 -38 -2 -38 27 0 34 20 50 56 43 21
-4 25 -9 22 -36z m-188 -12 c0 -13 -4 -24 -10 -24 -5 0 -10 8 -10 17 0 15 -1
15 -13 -1 -12 -16 -15 -16 -19 -4 -7 18 1 33 22 40 22 8 30 0 30 -28z m-688
-20 c16 -15 -7 -43 -40 -51 -30 -7 -38 -14 -40 -36 -3 -20 1 -27 14 -27 10 0
14 3 11 6 -13 13 14 45 36 42 17 -2 23 -11 25 -36 2 -18 -2 -40 -9 -48 -18
-22 -65 -17 -83 8 -19 27 -21 111 -3 126 20 16 78 27 89 16z m968 -19 c0 -8
-9 -15 -20 -15 -11 0 -20 -7 -20 -15 0 -8 -5 -15 -10 -15 -6 0 -13 7 -16 15
-11 27 4 45 36 45 20 0 30 -5 30 -15z m-289 -16 c8 -16 8 -24 0 -32 -9 -9 -13
-6 -17 11 -4 13 -14 22 -26 22 -10 0 -16 5 -13 10 11 17 44 11 56 -11z m197
-13 c-3 -28 -7 -31 -40 -34 -36 -3 -38 -2 -38 27 0 30 6 34 57 37 21 2 24 -2
21 -30z m112 -6 c0 -5 -4 -10 -10 -10 -5 0 -10 5 -10 10 0 6 5 10 10 10 6 0
10 -4 10 -10z m-10 -30 c13 -9 12 -13 -9 -30 -33 -28 -61 -26 -61 4 0 33 38
47 70 26z m-320 -10 c0 -5 -9 -10 -20 -10 -11 0 -20 5 -20 10 0 6 9 10 20 10
11 0 20 -4 20 -10z m117 -16 c3 -8 0 -21 -7 -27 -10 -9 -14 -9 -17 1 -3 6 -13
12 -24 12 -10 0 -19 7 -19 15 0 21 59 20 67 -1z m111 -16 c3 -22 -2 -29 -22
-34 -46 -11 -76 3 -76 35 0 27 2 28 48 27 43 -1 47 -3 50 -28z m-215 -8 c-4
-16 -9 -18 -24 -9 -26 14 -24 29 5 29 19 0 23 -4 19 -20z m313 -27 c5 -10 7
-31 4 -48 l-7 -30 -11 25 c-8 19 -11 21 -11 7 -1 -25 -25 -16 -29 11 -2 15 2
22 15 23 16 1 15 2 -2 7 l-20 5 20 8 c28 11 29 11 41 -8z m-218 -21 c2 -15 -2
-22 -12 -22 -9 0 -16 7 -16 15 0 9 -9 15 -25 15 -14 0 -25 5 -25 11 0 6 15 9
38 7 29 -3 38 -8 40 -26z m123 -9 c37 -40 95 -77 116 -75 13 2 23 -2 23 -8 0
-7 -9 -9 -22 -5 -20 5 -19 3 7 -19 16 -14 26 -28 22 -32 -4 -4 -29 12 -55 37
-26 24 -17 12 21 -26 37 -39 67 -75 67 -80 0 -5 -13 6 -29 25 -29 34 -30 35
-45 15 -14 -18 -15 -18 -16 -2 0 9 5 17 11 17 5 0 7 5 4 11 -5 7 -14 4 -26 -7
-21 -19 -27 -6 -7 14 19 19 -53 88 -79 77 -10 -5 -21 -9 -25 -9 -4 -1 -13 -8
-20 -16 -11 -12 -11 -12 5 -1 11 9 17 10 17 2 0 -10 -14 -15 -33 -12 -5 1 -5
-4 -1 -10 3 -6 0 -15 -7 -20 -11 -7 -10 -11 6 -23 11 -9 15 -16 10 -16 -6 0
-16 5 -23 12 -6 6 -15 8 -19 4 -4 -4 -1 -11 7 -16 8 -5 11 -13 6 -17 -4 -4
-17 3 -28 17 -16 20 -19 21 -16 6 1 -10 -3 -21 -11 -24 -10 -3 -11 0 -5 9 4 8
-7 2 -26 -12 -41 -31 -49 -49 -22 -49 13 0 22 8 24 22 3 23 40 33 68 17 10 -6
3 -8 -22 -9 -21 0 -38 -3 -38 -7 0 -5 83 -8 185 -8 102 0 185 2 185 5 0 2 -14
19 -32 37 -18 18 -27 33 -21 33 6 0 9 9 6 20 -3 11 0 20 6 20 6 0 11 -8 11
-17 0 -15 2 -16 10 -3 8 13 10 12 10 -2 0 -10 -7 -18 -17 -18 -13 0 -11 -6 10
-28 40 -42 35 -58 -19 -66 -26 -3 -211 -6 -411 -6 -287 0 -364 3 -360 13 3 9
49 12 188 11 l184 -1 25 31 c14 17 19 27 13 23 -10 -6 -13 1 -13 27 0 41 7 46
20 14 l9 -23 7 23 c3 12 13 22 21 22 9 0 13 -6 9 -15 -9 -25 3 -17 65 42 61
58 63 72 12 73 -16 0 -23 -6 -23 -20 0 -11 5 -20 10 -20 6 0 10 -5 10 -11 0
-6 -10 -9 -22 -7 -23 3 -35 35 -24 64 8 21 87 19 107 -3z m-161 -9 c0 -8 -4
-12 -10 -9 -5 3 -10 10 -10 16 0 5 5 9 10 9 6 0 10 -7 10 -16z m30 -44 c0 -5
-20 -10 -45 -10 -25 0 -45 5 -45 10 0 6 20 10 45 10 25 0 45 -4 45 -10z m-12
-27 c-16 -2 -40 -2 -55 0 -16 2 -3 4 27 4 30 0 43 -2 28 -4z m173 -25 c1 -31
1 -31 9 -8 6 22 8 23 15 7 10 -23 -6 -40 -28 -31 -11 4 -17 17 -17 35 0 40 20
37 21 -3z m-31 -3 c0 -8 -4 -17 -10 -20 -6 -4 -10 5 -10 20 0 15 4 24 10 20 6
-3 10 -12 10 -20z m-262 -21 c3 -33 -20 -54 -34 -32 -4 7 -2 14 4 16 7 2 12
10 12 19 0 22 -25 10 -28 -14 -2 -12 -12 -23 -23 -26 -29 -8 -27 46 4 61 39
19 62 11 65 -24z m645 22 c6 -16 -2 -28 -14 -20 -12 7 -11 34 0 34 5 0 11 -6
14 -14z m-755 -37 c-1 -13 -7 -23 -13 -22 -13 3 -18 30 -11 50 10 24 29 1 24
-28z m159 -6 c-3 -10 -5 -2 -5 17 0 19 2 27 5 18 2 -10 2 -26 0 -35z m-17 18
c0 -11 -4 -23 -10 -26 -6 -4 -10 5 -10 19 0 14 5 26 10 26 6 0 10 -9 10 -19z
m200 -2 c0 -5 -4 -9 -10 -9 -5 0 -10 7 -10 16 0 8 5 12 10 9 6 -3 10 -10 10
-16z m370 11 c0 -5 -4 -10 -10 -10 -5 0 -10 5 -10 10 0 6 5 10 10 10 6 0 10
-4 10 -10z m-770 -16 c0 -14 -31 -34 -52 -33 -22 1 -22 2 5 12 15 6 27 14 27
19 0 4 5 8 10 8 6 0 10 -3 10 -6z m481 -33 c30 -24 21 -36 -15 -20 -21 10 -31
10 -51 -1 -34 -18 -45 -3 -15 20 32 25 52 25 81 1z m-271 -21 c0 -6 -70 -10
-190 -10 -120 0 -190 4 -190 10 0 6 70 10 190 10 120 0 190 -4 190 -10z m575
0 c-3 -5 -33 -10 -66 -10 -33 0 -59 4 -59 10 0 6 29 10 66 10 41 0 63 -4 59
-10z m-212 -7 c-7 -2 -21 -2 -30 0 -10 3 -4 5 12 5 17 0 24 -2 18 -5z m212
-33 c-3 -5 -33 -10 -66 -10 -33 0 -59 4 -59 10 0 6 29 10 66 10 41 0 63 -4 59
-10z m-855 -70 c0 -33 -3 -40 -20 -40 -17 0 -20 7 -20 40 0 33 3 40 20 40 17
0 20 -7 20 -40z m66 16 c8 -35 2 -59 -18 -62 -15 -2 -18 6 -18 42 0 49 25 63
36 20z m66 12 c7 -56 4 -68 -13 -68 -15 0 -19 8 -19 40 0 29 4 40 15 40 8 0
16 -6 17 -12z m68 -33 c0 -33 -4 -45 -14 -45 -22 0 -26 12 -19 53 8 55 33 49
33 -8z m70 -1 c0 -38 -3 -45 -17 -42 -13 2 -19 15 -21 46 -3 37 -1 42 17 42
18 0 21 -6 21 -46z m70 7 c0 -36 -18 -59 -34 -44 -8 8 -8 68 1 76 18 19 33 5
33 -32z m68 16 c6 -32 -7 -67 -23 -61 -10 4 -15 20 -15 46 0 32 3 39 17 36 10
-2 19 -11 21 -21z m62 -22 c0 -35 -3 -43 -15 -39 -10 4 -15 20 -15 45 0 28 4
39 15 39 11 0 15 -12 15 -45z m70 2 c0 -32 -4 -44 -15 -44 -11 0 -15 12 -15
44 0 32 4 43 15 43 11 0 15 -11 15 -43z m72 26 c7 -28 -6 -68 -22 -68 -16 0
-26 46 -16 71 8 20 33 17 38 -3z m68 -23 c0 -33 -3 -40 -20 -40 -17 0 -20 7
-20 40 0 33 3 40 20 40 17 0 20 -7 20 -40z m70 0 c0 -33 -3 -40 -20 -40 -16 0
-20 7 -20 33 0 36 6 47 27 47 9 0 13 -13 13 -40z m66 16 c7 -31 -4 -68 -19
-63 -7 2 -13 22 -15 45 -2 32 0 42 12 42 9 0 18 -11 22 -24z m509 -381 l0
-290 -930 0 -930 0 -3 291 -2 292 932 -2 933 -1 0 -290z"/>
<path d="M974 2018 c3 -17 8 -34 11 -36 11 -11 16 9 10 37 -9 42 -29 41 -21
-1z"/>
<path d="M897 2034 c-13 -13 -7 -24 14 -24 11 0 19 5 17 12 -5 14 -22 21 -31
12z"/>
<path d="M1230 2044 c-10 -11 -9 -14 8 -14 11 0 23 -6 25 -12 3 -7 6 -3 6 8 1
27 -23 38 -39 18z"/>
<path d="M1311 2003 c0 -31 2 -34 9 -18 12 28 12 55 0 55 -5 0 -10 -17 -9 -37z"/>
<path d="M1222 2000 c0 -14 2 -19 5 -12 2 6 2 18 0 25 -3 6 -5 1 -5 -13z"/>
<path d="M725 1953 c4 -10 10 -26 12 -35 3 -10 9 -15 14 -13 10 7 -10 65 -23
65 -6 0 -7 -8 -3 -17z"/>
<path d="M657 1933 c-13 -13 -7 -21 13 -16 11 3 17 9 14 14 -6 11 -18 12 -27
2z"/>
<path d="M660 1875 c0 -8 4 -15 10 -15 5 0 7 7 4 15 -4 8 -8 15 -10 15 -2 0
-4 -7 -4 -15z"/>
<path d="M1576 1853 c-6 -14 -5 -15 5 -6 7 7 10 15 7 18 -3 3 -9 -2 -12 -12z"/>
<path d="M1704 1776 c-9 -15 -14 -29 -11 -32 3 -3 13 6 23 20 9 15 14 29 11
32 -3 3 -13 -6 -23 -20z"/>
<path d="M543 1829 c10 -6 22 -20 27 -32 8 -21 9 -21 9 -1 1 24 -17 44 -38 44
-13 -1 -12 -3 2 -11z"/>
<path d="M510 1793 c0 -5 7 -18 15 -29 12 -16 14 -16 15 -3 0 9 -7 22 -15 29
-8 7 -15 8 -15 3z"/>
<path d="M460 1750 c-9 -16 -8 -18 5 -14 8 4 15 12 15 20 0 20 -7 17 -20 -6z"/>
<path d="M855 1680 c-3 -6 1 -7 9 -4 18 7 21 14 7 14 -6 0 -13 -4 -16 -10z"/>
<path d="M867 1660 c-14 -11 -29 -29 -32 -39 -3 -11 -24 -26 -46 -35 -31 -13
-45 -26 -59 -59 -11 -23 -20 -52 -20 -65 0 -13 -13 -40 -29 -60 -35 -44 -47
-84 -32 -109 10 -17 10 -16 11 3 0 12 15 44 33 72 19 27 37 67 40 88 7 41 36
79 44 56 3 -6 9 -10 14 -6 5 3 9 0 9 -6 0 -7 7 -5 16 4 8 9 13 20 9 26 -3 6 1
7 9 4 14 -5 13 -10 -4 -34 -22 -31 -26 -50 -10 -50 6 0 10 4 10 9 0 5 12 23
26 40 16 20 21 31 12 31 -10 0 -10 2 1 9 8 5 11 16 8 26 -4 9 -11 13 -17 10
-5 -3 -10 -2 -10 4 0 5 12 12 28 16 26 6 68 66 55 79 -12 12 -41 6 -66 -14z
m40 -11 c-9 -6 -15 -14 -12 -20 4 -5 -2 -9 -11 -9 -16 0 -16 1 1 20 10 11 23
20 29 20 6 0 3 -5 -7 -11z m-87 -87 c0 -4 -10 -13 -22 -21 -23 -14 -23 -14 -4
8 20 22 26 25 26 13z"/>
<path d="M1505 1440 c-1 -38 4 -61 12 -64 6 -3 21 -22 33 -43 20 -36 21 -37
15 -8 -3 17 -15 42 -25 57 -13 18 -18 36 -14 55 3 16 0 36 -8 46 -11 15 -13 9
-13 -43z"/>
<path d="M810 1429 c0 -5 5 -7 10 -4 6 3 10 8 10 11 0 2 -4 4 -10 4 -5 0 -10
-5 -10 -11z"/>
<path d="M1805 1670 c4 -14 1 -28 -11 -41 -9 -10 -13 -19 -7 -19 17 0 45 38
41 56 -1 10 -9 19 -17 22 -9 3 -11 -2 -6 -18z"/>
<path d="M1846 1593 c-6 -14 -5 -15 5 -6 7 7 10 15 7 18 -3 3 -9 -2 -12 -12z"/>
<path d="M1810 1569 c0 -5 5 -7 10 -4 6 3 10 8 10 11 0 2 -4 4 -10 4 -5 0 -10
-5 -10 -11z"/>
<path d="M336 1554 c-11 -30 -6 -37 13 -18 10 10 17 22 14 27 -7 12 -21 8 -27
-9z"/>
<path d="M1100 1484 c0 -8 5 -12 10 -9 6 3 10 10 10 16 0 5 -4 9 -10 9 -5 0
-10 -7 -10 -16z"/>
<path d="M330 1390 c0 -5 9 -14 21 -20 19 -11 20 -10 9 9 -11 22 -30 29 -30
11z"/>
<path d="M280 1320 c0 -5 13 -10 28 -10 15 0 33 -5 40 -12 9 -9 12 -8 12 8 0
15 -8 20 -40 22 -22 1 -40 -2 -40 -8z"/>
<path d="M1885 1140 c-4 -6 7 -10 24 -10 17 0 31 4 31 8 0 11 -48 13 -55 2z"/>
<path d="M1180 1265 c0 -8 5 -15 10 -15 6 0 10 7 10 15 0 8 -4 15 -10 15 -5 0
-10 -7 -10 -15z"/>
<path d="M1176 1185 c-4 -10 1 -15 14 -15 11 0 20 7 20 15 0 8 -6 15 -14 15
-8 0 -16 -7 -20 -15z"/>
<path d="M1170 1100 c0 -5 9 -10 20 -10 11 0 20 5 20 10 0 6 -9 10 -20 10 -11
0 -20 -4 -20 -10z"/>
<path d="M1224 997 c-16 -18 -16 -19 -2 -8 10 7 27 11 38 8 25 -6 26 -1 1 12
-14 8 -23 6 -37 -12z"/>
<path d="M1145 930 c-3 -5 -2 -10 4 -10 5 0 13 5 16 10 3 6 2 10 -4 10 -5 0
-13 -4 -16 -10z"/>
<path d="M1574 625 c-18 -13 -18 -15 -1 -32 13 -13 21 -15 34 -7 25 16 27 31
5 43 -14 7 -24 6 -38 -4z"/>
<path d="M765 550 c-50 -79 -73 -87 -126 -49 -29 20 -31 20 -50 4 -26 -24 -24
-29 15 -50 54 -29 113 -16 155 34 l34 41 28 -45 c16 -25 33 -45 39 -45 6 0 19
20 29 44 22 51 67 86 109 86 24 0 31 5 34 25 5 22 2 25 -24 25 -42 0 -93 -26
-108 -55 -7 -14 -16 -25 -19 -25 -3 0 -16 18 -29 40 -12 22 -27 40 -32 40 -6
0 -30 -31 -55 -70z"/>
<path d="M1144 554 c-23 -55 -34 -69 -62 -81 -19 -8 -42 -11 -51 -7 -12 5 -8
9 18 18 67 24 69 76 4 76 -51 0 -103 -32 -103 -63 0 -50 58 -71 129 -46 23 8
35 8 45 0 8 -7 36 -12 62 -11 27 0 65 0 84 -1 75 -1 228 9 239 16 7 4 21 -1
32 -11 20 -18 22 -18 65 5 40 22 64 51 29 37 -8 -3 -22 -9 -30 -12 -17 -7 -21
25 -6 41 5 6 12 19 15 31 6 18 3 20 -24 16 -18 -2 -32 -12 -35 -23 -7 -21 -44
-59 -57 -59 -5 0 -2 13 7 30 22 42 19 53 -12 48 -16 -3 -41 -2 -58 2 -42 9
-82 -13 -99 -55 -10 -24 -22 -35 -35 -35 -12 0 -21 1 -21 3 0 2 11 31 25 65
14 34 25 64 25 67 0 3 -11 5 -25 5 -21 0 -30 -11 -57 -64 -29 -59 -60 -87 -73
-66 -3 4 7 34 21 65 22 47 24 59 13 66 -27 17 -37 8 -65 -57z m-92 -36 c-6 -6
-15 -8 -19 -4 -4 4 -1 11 7 16 19 12 27 3 12 -12z m364 -23 c-17 -26 -36 -26
-36 0 0 22 31 48 43 36 7 -7 4 -18 -7 -36z"/>
<path d="M1022 334 c-30 -21 -28 -49 8 -76 17 -12 30 -26 30 -31 0 -5 -13 -7
-30 -3 -27 5 -30 3 -30 -19 0 -47 94 -44 120 5 13 24 5 45 -26 65 -32 21 -31
39 1 31 20 -5 25 -3 25 13 0 33 -59 42 -98 15z"/>
<path d="M1820 337 c-37 -19 -37 -51 -1 -78 39 -29 39 -43 1 -35 -27 5 -30 3
-30 -18 0 -52 113 -41 123 12 4 19 -2 32 -24 51 -36 31 -37 45 -4 39 33 -7 35
27 3 36 -32 8 -40 7 -68 -7z"/>
<path d="M346 277 c1 -34 2 -70 3 -79 1 -16 12 -18 86 -18 50 0 85 4 85 10 0
6 9 10 20 10 11 0 20 -4 20 -10 0 -5 14 -10 30 -10 36 0 36 2 9 91 l-21 70
-36 -3 c-36 -3 -37 -4 -56 -70 -10 -38 -23 -68 -27 -68 -5 0 -9 5 -9 10 0 6
-9 10 -20 10 -18 0 -20 7 -20 60 l0 60 -32 0 -33 0 1 -63z m204 -17 c0 -11 -4
-20 -10 -20 -5 0 -10 9 -10 20 0 11 5 20 10 20 6 0 10 -9 10 -20z"/>
<path d="M640 261 l0 -80 85 -3 c63 -2 85 0 85 10 0 6 11 12 25 12 14 0 25 -4
25 -10 0 -5 11 -10 25 -10 30 0 29 -4 7 85 l-18 70 -40 3 -40 3 -19 -76 c-17
-68 -35 -99 -35 -60 0 8 -9 15 -20 15 -18 0 -20 7 -20 60 l0 60 -30 0 -30 0 0
-79z m198 -20 c-15 -5 -18 3 -11 29 l7 25 6 -25 c3 -14 2 -27 -2 -29z"/>
<path d="M1140 328 c0 -7 7 -44 16 -81 17 -67 17 -68 48 -65 27 3 31 7 37 41
9 54 17 55 24 3 7 -42 10 -46 35 -46 26 0 30 5 44 53 32 111 32 107 -3 107
-30 0 -31 -2 -31 -41 0 -48 -15 -44 -24 6 -6 32 -10 36 -34 33 -23 -3 -28 -9
-36 -48 -9 -48 -11 -47 -21 13 -5 31 -10 37 -30 37 -14 0 -25 -6 -25 -12z"/>
<path d="M1390 260 l0 -80 55 0 c48 0 55 2 55 20 0 15 -7 20 -25 20 -14 0 -25
5 -25 10 0 6 9 10 20 10 13 0 20 7 20 20 0 13 -7 20 -20 20 -11 0 -20 7 -20
15 0 9 9 15 25 15 16 0 25 6 25 15 0 12 -13 15 -55 15 l-55 0 0 -80z"/>
<path d="M1525 260 l0 -80 51 0 c43 0 53 3 57 20 4 17 0 20 -24 20 -16 0 -29
5 -29 10 0 6 11 10 25 10 32 0 36 37 5 42 -12 2 -21 8 -21 13 0 6 9 11 21 13
11 2 20 10 20 18 0 10 -14 14 -52 14 l-53 0 0 -80z"/>
<path d="M1650 320 c0 -13 5 -18 15 -14 12 5 15 -5 15 -59 0 -64 0 -65 30 -69
l29 -4 3 65 c2 50 7 66 18 66 8 0 16 8 18 18 3 15 -5 17 -62 17 -59 0 -66 -2
-66 -20z"/>
</g>
</svg>
